<?xml version="1.0" encoding="UTF-8" standalone="no"?>
<svg
   style="fill-opacity:1; color-rendering:auto; color-interpolation:auto; text-rendering:auto; stroke:black; stroke-linecap:square; stroke-miterlimit:10; shape-rendering:auto; stroke-opacity:1; fill:black; stroke-dasharray:none; font-weight:normal; stroke-width:1; font-family:'Dialog'; font-style:normal; stroke-linejoin:miter; font-size:12px; stroke-dashoffset:0; image-rendering:auto;"
   width="840"
   height="630"
   version="1.1"
   id="svg112"
   sodipodi:docname="SubjBN.svg"
   inkscape:version="1.3.2 (091e20e, 2023-11-25, custom)"
   xmlns:inkscape="http://www.inkscape.org/namespaces/inkscape"
   xmlns:sodipodi="http://sodipodi.sourceforge.net/DTD/sodipodi-0.dtd"
   xmlns="http://www.w3.org/2000/svg"
   xmlns:svg="http://www.w3.org/2000/svg">
  <sodipodi:namedview
     id="namedview112"
     pagecolor="#ffffff"
     bordercolor="#000000"
     borderopacity="0.25"
     inkscape:showpageshadow="2"
     inkscape:pageopacity="0.0"
     inkscape:pagecheckerboard="0"
     inkscape:deskcolor="#d1d1d1"
     showgrid="false"
     inkscape:zoom="0.91699403"
     inkscape:cx="281.35407"
     inkscape:cy="282.98985"
     inkscape:window-width="1920"
     inkscape:window-height="1094"
     inkscape:window-x="-11"
     inkscape:window-y="-11"
     inkscape:window-maximized="1"
     inkscape:current-layer="svg112" />
  <!--Generated by the Batik Graphics2D SVG Generator-->
  <defs
     id="genericDefs">
    <defs
       id="defs1">
      <clipPath
         clipPathUnits="userSpaceOnUse"
         id="clipPath1">
        <path
           d="M0 0 L840 0 L840 630 L0 630 L0 0 Z"
           id="path1" />
      </clipPath>
    </defs>
  </defs>
  <g
     style="fill:#ffffff;stroke:#ffffff"
     id="g1">
    <rect
       x="0"
       y="0"
       width="840"
       style="stroke:none"
       height="630"
       clip-path="url(#clipPath1)"
       id="rect1" />
  </g>
  <g
     style="color-interpolation:sRGB;fill:#ffffff;stroke:#ffffff;color-rendering:optimizeSpeed;image-rendering:optimizeSpeed;shape-rendering:crispEdges;text-rendering:optimizeSpeed"
     id="g2"
     transform="translate(-0.05480139,-1.7387334)">
    <rect
       x="0"
       width="840"
       height="630"
       y="0"
       style="stroke:none"
       id="rect2" />
    <path
       style="stroke:none"
       d="M 109,561 H 760 V 47 H 109 Z"
       id="path2" />
  </g>
  <g
     style="color-interpolation:linearRGB;fill:#262626;stroke:#262626;stroke-linejoin:round;color-rendering:optimizeQuality;image-rendering:optimizeQuality;text-rendering:geometricPrecision"
     id="g12">
    <line
       y2="561"
       style="fill:none"
       x1="109"
       x2="760"
       y1="561"
       id="line2" />
    <line
       y2="554.48999"
       style="fill:none"
       x1="109"
       x2="109"
       y1="561"
       id="line3" />
    <line
       y2="554.48999"
       style="fill:none"
       x1="174.10001"
       x2="174.10001"
       y1="561"
       id="line4" />
    <line
       y2="554.48999"
       style="fill:none"
       x1="239.2"
       x2="239.2"
       y1="561"
       id="line5" />
    <line
       y2="554.48999"
       style="fill:none"
       x1="304.29999"
       x2="304.29999"
       y1="561"
       id="line6" />
    <line
       y2="554.48999"
       style="fill:none"
       x1="369.39999"
       x2="369.39999"
       y1="561"
       id="line7" />
    <line
       y2="554.48999"
       style="fill:none"
       x1="434.5"
       x2="434.5"
       y1="561"
       id="line8" />
    <line
       y2="554.48999"
       style="fill:none"
       x1="499.60001"
       x2="499.60001"
       y1="561"
       id="line9" />
    <line
       y2="554.48999"
       style="fill:none"
       x1="564.70001"
       x2="564.70001"
       y1="561"
       id="line10" />
    <line
       y2="554.48999"
       style="fill:none"
       x1="629.79999"
       x2="629.79999"
       y1="561"
       id="line11" />
    <line
       y2="554.48999"
       style="fill:none"
       x1="694.90002"
       x2="694.90002"
       y1="561"
       id="line12" />
  </g>
  <g
     transform="translate(109,569)"
     style="font-size:20px;color-interpolation:linearRGB;fill:#262626;stroke:#262626;color-rendering:optimizeQuality;image-rendering:optimizeQuality;text-rendering:geometricPrecision"
     id="g13">
    <path
       style="stroke:none"
       d="m -22.3594,16.7031 v -1.7656 h 5.3906 v 1.7656 z m 6.8477,-2.7656 q 0,-2.5313 0.5234,-4.0859 0.5235,-1.5547 1.5547,-2.3907 1.0313,-0.8359 2.5938,-0.8359 1.1562,0 2.0234,0.4609 0.8672,0.461 1.4297,1.336 0.5625,0.875 0.8906,2.1328 0.3281,1.2578 0.3281,3.3828 0,2.5156 -0.5234,4.0625 -0.5234,1.5469 -1.5469,2.3984 -1.0234,0.8516 -2.6015,0.8516 -2.0782,0 -3.25,-1.4844 -1.4219,-1.7968 -1.4219,-5.8281 z m 1.8125,0 q 0,3.5313 0.8203,4.6953 0.8203,1.1641 2.0391,1.1641 1.2031,0 2.0312,-1.1719 0.8281,-1.1719 0.8281,-4.6875 0,-3.5313 -0.8281,-4.6953 -0.8281,-1.1641 -2.0469,-1.1641 -1.2187,0 -1.9375,1.0313 -0.9062,1.2968 -0.9062,4.8281 z M -3.4043,21 v -2 h 2 v 2 z M 10.4023,19.3125 V 21 H 0.9492 q -0.0156,-0.6406 0.2031,-1.2188 0.3594,-0.9687 1.1563,-1.9062 0.7969,-0.9375 2.2969,-2.1719 2.3437,-1.9062 3.164,-3.0234 0.8203,-1.1172 0.8203,-2.1172 0,-1.0469 -0.75,-1.7656 -0.75,-0.7188 -1.9531,-0.7188 -1.2656,0 -2.0312,0.7657 -0.7657,0.7656 -0.7657,2.1093 L 1.2773,10.7656 Q 1.4648,8.75 2.6758,7.6875 3.8867,6.625 5.9336,6.625 q 2.0469,0 3.25,1.1406 1.2031,1.1406 1.2031,2.8282 0,0.8593 -0.3515,1.6953 -0.3516,0.8359 -1.1641,1.75 -0.8125,0.914 -2.7031,2.5234 -1.5938,1.3281 -2.0391,1.7969 -0.4453,0.4687 -0.7422,0.9531 z M 12.291,17.25 14.1348,17.0938 q 0.2031,1.3437 0.9531,2.0234 0.75,0.6797 1.8125,0.6797 1.2656,0 2.1406,-0.9531 0.875,-0.9532 0.875,-2.5469 0,-1.5 -0.8437,-2.3672 -0.8438,-0.8672 -2.2032,-0.8672 -0.8593,0 -1.539,0.3828 -0.6797,0.3828 -1.0703,1.0078 L 12.6035,14.2344 13.9941,6.875 h 7.125 v 1.6875 h -5.7187 l -0.7656,3.8437 Q 15.916,11.5 17.3379,11.5 q 1.875,0 3.1641,1.3047 1.289,1.3047 1.289,3.3359 0,1.9532 -1.1406,3.3594 -1.375,1.75 -3.75,1.75 -1.9531,0 -3.1953,-1.0938 Q 12.4629,19.0625 12.291,17.25 Z"
       id="path12" />
  </g>
  <g
     transform="translate(174.1,569)"
     style="font-size:20px;color-interpolation:linearRGB;fill:#262626;stroke:#262626;color-rendering:optimizeQuality;image-rendering:optimizeQuality;text-rendering:geometricPrecision"
     id="g14">
    <path
       style="stroke:none"
       d="m -16.8594,16.7031 v -1.7656 h 5.3906 v 1.7656 z m 6.8477,-2.7656 q 0,-2.5313 0.5234,-4.0859 0.5235,-1.5547 1.5547,-2.3907 1.0313,-0.8359 2.5938,-0.8359 1.1562,0 2.0234,0.4609 0.8672,0.461 1.4297,1.336 0.5625,0.875 0.8906,2.1328 0.3281,1.2578 0.3281,3.3828 0,2.5156 -0.5234,4.0625 -0.5234,1.5469 -1.5469,2.3984 -1.0234,0.8516 -2.6015,0.8516 -2.0782,0 -3.25,-1.4844 -1.4219,-1.7968 -1.4219,-5.8281 z m 1.8125,0 q 0,3.5313 0.8203,4.6953 0.8203,1.1641 2.0391,1.1641 1.2031,0 2.0312,-1.1719 0.8281,-1.1719 0.8281,-4.6875 0,-3.5313 -0.8281,-4.6953 -0.8281,-1.1641 -2.0469,-1.1641 -1.2187,0 -1.9375,1.0313 -0.9062,1.2968 -0.9062,4.8281 z M 2.0957,21 v -2 h 2 v 2 z M 15.9023,19.3125 V 21 H 6.4492 q -0.0156,-0.6406 0.2031,-1.2188 0.3594,-0.9687 1.1563,-1.9062 0.7969,-0.9375 2.2969,-2.1719 2.3437,-1.9062 3.164,-3.0234 0.8203,-1.1172 0.8203,-2.1172 0,-1.0469 -0.75,-1.7656 -0.75,-0.7188 -1.9531,-0.7188 -1.2656,0 -2.0312,0.7657 -0.7657,0.7656 -0.7657,2.1093 L 6.7773,10.7656 Q 6.9648,8.75 8.1758,7.6875 9.3867,6.625 11.4336,6.625 q 2.0469,0 3.25,1.1406 1.2031,1.1406 1.2031,2.8282 0,0.8593 -0.3515,1.6953 -0.3516,0.8359 -1.1641,1.75 -0.8125,0.914 -2.7031,2.5234 -1.5938,1.3281 -2.0391,1.7969 -0.4453,0.4687 -0.7422,0.9531 z"
       id="path13" />
  </g>
  <g
     transform="translate(239.2,569)"
     style="font-size:20px;color-interpolation:linearRGB;fill:#262626;stroke:#262626;color-rendering:optimizeQuality;image-rendering:optimizeQuality;text-rendering:geometricPrecision"
     id="g15">
    <path
       style="stroke:none"
       d="m -22.3594,16.7031 v -1.7656 h 5.3906 v 1.7656 z m 6.8477,-2.7656 q 0,-2.5313 0.5234,-4.0859 0.5235,-1.5547 1.5547,-2.3907 1.0313,-0.8359 2.5938,-0.8359 1.1562,0 2.0234,0.4609 0.8672,0.461 1.4297,1.336 0.5625,0.875 0.8906,2.1328 0.3281,1.2578 0.3281,3.3828 0,2.5156 -0.5234,4.0625 -0.5234,1.5469 -1.5469,2.3984 -1.0234,0.8516 -2.6015,0.8516 -2.0782,0 -3.25,-1.4844 -1.4219,-1.7968 -1.4219,-5.8281 z m 1.8125,0 q 0,3.5313 0.8203,4.6953 0.8203,1.1641 2.0391,1.1641 1.2031,0 2.0312,-1.1719 0.8281,-1.1719 0.8281,-4.6875 0,-3.5313 -0.8281,-4.6953 -0.8281,-1.1641 -2.0469,-1.1641 -1.2187,0 -1.9375,1.0313 -0.9062,1.2968 -0.9062,4.8281 z M -3.4043,21 v -2 h 2 v 2 z M 7.793,21 H 6.0273 V 9.7969 q -0.625,0.6093 -1.6562,1.2109 -1.0313,0.6016 -1.8594,0.9141 V 10.2188 Q 3.9961,9.5312 5.0977,8.5391 6.1992,7.5469 6.6523,6.625 H 7.793 Z m 4.498,-3.75 1.8438,-0.1562 q 0.2031,1.3437 0.9531,2.0234 0.75,0.6797 1.8125,0.6797 1.2656,0 2.1406,-0.9531 0.875,-0.9532 0.875,-2.5469 0,-1.5 -0.8437,-2.3672 -0.8438,-0.8672 -2.2032,-0.8672 -0.8593,0 -1.539,0.3828 -0.6797,0.3828 -1.0703,1.0078 L 12.6035,14.2344 13.9941,6.875 h 7.125 v 1.6875 h -5.7187 l -0.7656,3.8437 Q 15.916,11.5 17.3379,11.5 q 1.875,0 3.1641,1.3047 1.289,1.3047 1.289,3.3359 0,1.9532 -1.1406,3.3594 -1.375,1.75 -3.75,1.75 -1.9531,0 -3.1953,-1.0938 Q 12.4629,19.0625 12.291,17.25 Z"
       id="path14" />
  </g>
  <g
     transform="translate(304.3,569)"
     style="font-size:20px;color-interpolation:linearRGB;fill:#262626;stroke:#262626;color-rendering:optimizeQuality;image-rendering:optimizeQuality;text-rendering:geometricPrecision"
     id="g16">
    <path
       style="stroke:none"
       d="m -16.8594,16.7031 v -1.7656 h 5.3906 v 1.7656 z m 6.8477,-2.7656 q 0,-2.5313 0.5234,-4.0859 0.5235,-1.5547 1.5547,-2.3907 1.0313,-0.8359 2.5938,-0.8359 1.1562,0 2.0234,0.4609 0.8672,0.461 1.4297,1.336 0.5625,0.875 0.8906,2.1328 0.3281,1.2578 0.3281,3.3828 0,2.5156 -0.5234,4.0625 -0.5234,1.5469 -1.5469,2.3984 -1.0234,0.8516 -2.6015,0.8516 -2.0782,0 -3.25,-1.4844 -1.4219,-1.7968 -1.4219,-5.8281 z m 1.8125,0 q 0,3.5313 0.8203,4.6953 0.8203,1.1641 2.0391,1.1641 1.2031,0 2.0312,-1.1719 0.8281,-1.1719 0.8281,-4.6875 0,-3.5313 -0.8281,-4.6953 -0.8281,-1.1641 -2.0469,-1.1641 -1.2187,0 -1.9375,1.0313 -0.9062,1.2968 -0.9062,4.8281 z M 2.0957,21 v -2 h 2 v 2 z M 13.293,21 H 11.5273 V 9.7969 q -0.625,0.6093 -1.6562,1.2109 -1.0313,0.6016 -1.8594,0.9141 V 10.2188 Q 9.4961,9.5312 10.5977,8.5391 11.6992,7.5469 12.1523,6.625 h 1.1407 z"
       id="path15" />
  </g>
  <g
     transform="translate(369.4,569)"
     style="font-size:20px;color-interpolation:linearRGB;fill:#262626;stroke:#262626;color-rendering:optimizeQuality;image-rendering:optimizeQuality;text-rendering:geometricPrecision"
     id="g17">
    <path
       style="stroke:none"
       d="m -22.3594,16.7031 v -1.7656 h 5.3906 v 1.7656 z m 6.8477,-2.7656 q 0,-2.5313 0.5234,-4.0859 0.5235,-1.5547 1.5547,-2.3907 1.0313,-0.8359 2.5938,-0.8359 1.1562,0 2.0234,0.4609 0.8672,0.461 1.4297,1.336 0.5625,0.875 0.8906,2.1328 0.3281,1.2578 0.3281,3.3828 0,2.5156 -0.5234,4.0625 -0.5234,1.5469 -1.5469,2.3984 -1.0234,0.8516 -2.6015,0.8516 -2.0782,0 -3.25,-1.4844 -1.4219,-1.7968 -1.4219,-5.8281 z m 1.8125,0 q 0,3.5313 0.8203,4.6953 0.8203,1.1641 2.0391,1.1641 1.2031,0 2.0312,-1.1719 0.8281,-1.1719 0.8281,-4.6875 0,-3.5313 -0.8281,-4.6953 -0.8281,-1.1641 -2.0469,-1.1641 -1.2187,0 -1.9375,1.0313 -0.9062,1.2968 -0.9062,4.8281 z M -3.4043,21 v -2 h 2 v 2 z M 1.168,13.9375 q 0,-2.5313 0.5234,-4.0859 Q 2.2148,8.2969 3.2461,7.4609 4.2773,6.625 5.8398,6.625 q 1.1563,0 2.0235,0.4609 0.8672,0.461 1.4297,1.336 0.5625,0.875 0.8906,2.1328 0.3281,1.2578 0.3281,3.3828 0,2.5156 -0.5234,4.0625 Q 9.4648,19.5469 8.4414,20.3984 7.418,21.25 5.8398,21.25 3.7617,21.25 2.5898,19.7656 1.168,17.9688 1.168,13.9375 Z m 1.8125,0 q 0,3.5313 0.8203,4.6953 0.8203,1.1641 2.039,1.1641 1.2032,0 2.0313,-1.1719 0.8281,-1.1719 0.8281,-4.6875 0,-3.5313 -0.8281,-4.6953 Q 7.043,8.0781 5.8242,8.0781 q -1.2187,0 -1.9375,1.0313 -0.9062,1.2968 -0.9062,4.8281 z m 9.3105,3.3125 1.8438,-0.1562 q 0.2031,1.3437 0.9531,2.0234 0.75,0.6797 1.8125,0.6797 1.2656,0 2.1406,-0.9531 0.875,-0.9532 0.875,-2.5469 0,-1.5 -0.8437,-2.3672 -0.8438,-0.8672 -2.2032,-0.8672 -0.8593,0 -1.539,0.3828 -0.6797,0.3828 -1.0703,1.0078 L 12.6035,14.2344 13.9941,6.875 h 7.125 v 1.6875 h -5.7187 l -0.7656,3.8437 Q 15.916,11.5 17.3379,11.5 q 1.875,0 3.1641,1.3047 1.289,1.3047 1.289,3.3359 0,1.9532 -1.1406,3.3594 -1.375,1.75 -3.75,1.75 -1.9531,0 -3.1953,-1.0938 Q 12.4629,19.0625 12.291,17.25 Z"
       id="path16" />
  </g>
  <g
     transform="translate(434.5,569)"
     style="font-size:20px;color-interpolation:linearRGB;fill:#262626;stroke:#262626;color-rendering:optimizeQuality;image-rendering:optimizeQuality;text-rendering:geometricPrecision"
     id="g18">
    <path
       style="stroke:none"
       d="m -5.1719,13.9375 q 0,-2.5313 0.5235,-4.0859 Q -4.125,8.2969 -3.0938,7.4609 -2.0625,6.625 -0.5,6.625 q 1.1562,0 2.0234,0.4609 0.8672,0.461 1.4297,1.336 0.5625,0.875 0.8907,2.1328 0.3281,1.2578 0.3281,3.3828 0,2.5156 -0.5235,4.0625 Q 3.125,19.5469 2.1016,20.3984 1.0781,21.25 -0.5,21.25 q -2.0781,0 -3.25,-1.4844 -1.4219,-1.7968 -1.4219,-5.8281 z m 1.8125,0 q 0,3.5313 0.8203,4.6953 0.8203,1.1641 2.0391,1.1641 1.2031,0 2.0312,-1.1719 0.8282,-1.1719 0.8282,-4.6875 0,-3.5313 -0.8282,-4.6953 -0.8281,-1.1641 -2.0468,-1.1641 -1.2188,0 -1.9375,1.0313 -0.9063,1.2968 -0.9063,4.8281 z"
       id="path17" />
  </g>
  <g
     transform="translate(499.6,569)"
     style="font-size:20px;color-interpolation:linearRGB;fill:#262626;stroke:#262626;color-rendering:optimizeQuality;image-rendering:optimizeQuality;text-rendering:geometricPrecision"
     id="g19">
    <path
       style="stroke:none"
       d="m -18.6719,13.9375 q 0,-2.5313 0.5235,-4.0859 0.5234,-1.5547 1.5546,-2.3907 Q -15.5625,6.625 -14,6.625 q 1.1562,0 2.0234,0.4609 0.8672,0.461 1.4297,1.336 0.5625,0.875 0.8907,2.1328 0.3281,1.2578 0.3281,3.3828 0,2.5156 -0.5235,4.0625 -0.5234,1.5469 -1.5468,2.3984 Q -12.4219,21.25 -14,21.25 q -2.0781,0 -3.25,-1.4844 -1.4219,-1.7968 -1.4219,-5.8281 z m 1.8125,0 q 0,3.5313 0.8203,4.6953 0.8203,1.1641 2.0391,1.1641 1.2031,0 2.0312,-1.1719 0.8282,-1.1719 0.8282,-4.6875 0,-3.5313 -0.8282,-4.6953 -0.8281,-1.1641 -2.0468,-1.1641 -1.2188,0 -1.9375,1.0313 -0.9063,1.2968 -0.9063,4.8281 z M -6.5645,21 v -2 h 2 v 2 z m 4.5723,-7.0625 q 0,-2.5313 0.5234,-4.0859 Q -0.9453,8.2969 0.0859,7.4609 1.1172,6.625 2.6797,6.625 q 1.1562,0 2.0234,0.4609 0.8672,0.461 1.4297,1.336 0.5625,0.875 0.8906,2.1328 0.3282,1.2578 0.3282,3.3828 0,2.5156 -0.5235,4.0625 -0.5234,1.5469 -1.5469,2.3984 -1.0234,0.8516 -2.6015,0.8516 -2.0781,0 -3.25,-1.4844 -1.4219,-1.7968 -1.4219,-5.8281 z m 1.8125,0 q 0,3.5313 0.8203,4.6953 0.8203,1.1641 2.0391,1.1641 1.2031,0 2.0312,-1.1719 0.8282,-1.1719 0.8282,-4.6875 0,-3.5313 -0.8282,-4.6953 -0.8281,-1.1641 -2.0468,-1.1641 -1.2188,0 -1.9375,1.0313 -0.9063,1.2968 -0.9063,4.8281 z m 9.3106,3.3125 1.8437,-0.1562 q 0.2031,1.3437 0.9531,2.0234 0.75,0.6797 1.8125,0.6797 1.2657,0 2.1407,-0.9531 0.875,-0.9532 0.875,-2.5469 0,-1.5 -0.8438,-2.3672 -0.8437,-0.8672 -2.2031,-0.8672 -0.8594,0 -1.5391,0.3828 -0.6797,0.3828 -1.0703,1.0078 L 9.4434,14.2344 10.834,6.875 h 7.125 v 1.6875 h -5.7188 l -0.7656,3.8437 Q 12.7559,11.5 14.1777,11.5 q 1.875,0 3.1641,1.3047 1.2891,1.3047 1.2891,3.3359 0,1.9532 -1.1407,3.3594 -1.375,1.75 -3.75,1.75 -1.9531,0 -3.1953,-1.0938 Q 9.3027,19.0625 9.1309,17.25 Z"
       id="path18" />
  </g>
  <g
     transform="translate(564.7,569)"
     style="font-size:20px;color-interpolation:linearRGB;fill:#262626;stroke:#262626;color-rendering:optimizeQuality;image-rendering:optimizeQuality;text-rendering:geometricPrecision"
     id="g20">
    <path
       style="stroke:none"
       d="m -13.1719,13.9375 q 0,-2.5313 0.5235,-4.0859 0.5234,-1.5547 1.5546,-2.3907 1.0313,-0.8359 2.5938,-0.8359 1.1562,0 2.0234,0.4609 0.8672,0.461 1.4297,1.336 0.5625,0.875 0.8907,2.1328 0.3281,1.2578 0.3281,3.3828 0,2.5156 -0.5235,4.0625 -0.5234,1.5469 -1.5468,2.3984 Q -6.9219,21.25 -8.5,21.25 q -2.0781,0 -3.25,-1.4844 -1.4219,-1.7968 -1.4219,-5.8281 z m 1.8125,0 q 0,3.5313 0.8203,4.6953 0.8203,1.1641 2.0391,1.1641 1.2031,0 2.0312,-1.1719 0.8282,-1.1719 0.8282,-4.6875 0,-3.5313 -0.8282,-4.6953 -0.8281,-1.1641 -2.0468,-1.1641 -1.2188,0 -1.9375,1.0313 -0.9063,1.2968 -0.9063,4.8281 z M -1.0645,21 v -2 h 2 v 2 z m 11.1973,0 H 8.3672 V 9.7969 q -0.625,0.6093 -1.6563,1.2109 -1.0312,0.6016 -1.8593,0.9141 V 10.2188 Q 6.3359,9.5312 7.4375,8.5391 8.5391,7.5469 8.9922,6.625 h 1.1406 z"
       id="path19" />
  </g>
  <g
     transform="translate(629.8,569)"
     style="font-size:20px;color-interpolation:linearRGB;fill:#262626;stroke:#262626;color-rendering:optimizeQuality;image-rendering:optimizeQuality;text-rendering:geometricPrecision"
     id="g21">
    <path
       style="stroke:none"
       d="m -18.6719,13.9375 q 0,-2.5313 0.5235,-4.0859 0.5234,-1.5547 1.5546,-2.3907 Q -15.5625,6.625 -14,6.625 q 1.1562,0 2.0234,0.4609 0.8672,0.461 1.4297,1.336 0.5625,0.875 0.8907,2.1328 0.3281,1.2578 0.3281,3.3828 0,2.5156 -0.5235,4.0625 -0.5234,1.5469 -1.5468,2.3984 Q -12.4219,21.25 -14,21.25 q -2.0781,0 -3.25,-1.4844 -1.4219,-1.7968 -1.4219,-5.8281 z m 1.8125,0 q 0,3.5313 0.8203,4.6953 0.8203,1.1641 2.0391,1.1641 1.2031,0 2.0312,-1.1719 0.8282,-1.1719 0.8282,-4.6875 0,-3.5313 -0.8282,-4.6953 -0.8281,-1.1641 -2.0468,-1.1641 -1.2188,0 -1.9375,1.0313 -0.9063,1.2968 -0.9063,4.8281 z M -6.5645,21 v -2 h 2 v 2 z M 4.6328,21 H 2.8672 V 9.7969 q -0.625,0.6093 -1.6563,1.2109 -1.0312,0.6016 -1.8593,0.9141 V 10.2188 Q 0.8359,9.5312 1.9375,8.5391 3.0391,7.5469 3.4922,6.625 h 1.1406 z m 4.4981,-3.75 1.8437,-0.1562 q 0.2031,1.3437 0.9531,2.0234 0.75,0.6797 1.8125,0.6797 1.2657,0 2.1407,-0.9531 0.875,-0.9532 0.875,-2.5469 0,-1.5 -0.8438,-2.3672 -0.8437,-0.8672 -2.2031,-0.8672 -0.8594,0 -1.5391,0.3828 -0.6797,0.3828 -1.0703,1.0078 L 9.4434,14.2344 10.834,6.875 h 7.125 v 1.6875 h -5.7188 l -0.7656,3.8437 Q 12.7559,11.5 14.1777,11.5 q 1.875,0 3.1641,1.3047 1.2891,1.3047 1.2891,3.3359 0,1.9532 -1.1407,3.3594 -1.375,1.75 -3.75,1.75 -1.9531,0 -3.1953,-1.0938 Q 9.3027,19.0625 9.1309,17.25 Z"
       id="path20" />
  </g>
  <g
     transform="translate(694.9,569)"
     style="font-size:20px;color-interpolation:linearRGB;fill:#262626;stroke:#262626;color-rendering:optimizeQuality;image-rendering:optimizeQuality;text-rendering:geometricPrecision"
     id="g22">
    <path
       style="stroke:none"
       d="m -13.1719,13.9375 q 0,-2.5313 0.5235,-4.0859 0.5234,-1.5547 1.5546,-2.3907 1.0313,-0.8359 2.5938,-0.8359 1.1562,0 2.0234,0.4609 0.8672,0.461 1.4297,1.336 0.5625,0.875 0.8907,2.1328 0.3281,1.2578 0.3281,3.3828 0,2.5156 -0.5235,4.0625 -0.5234,1.5469 -1.5468,2.3984 Q -6.9219,21.25 -8.5,21.25 q -2.0781,0 -3.25,-1.4844 -1.4219,-1.7968 -1.4219,-5.8281 z m 1.8125,0 q 0,3.5313 0.8203,4.6953 0.8203,1.1641 2.0391,1.1641 1.2031,0 2.0312,-1.1719 0.8282,-1.1719 0.8282,-4.6875 0,-3.5313 -0.8282,-4.6953 -0.8281,-1.1641 -2.0468,-1.1641 -1.2188,0 -1.9375,1.0313 -0.9063,1.2968 -0.9063,4.8281 z M -1.0645,21 v -2 h 2 v 2 z M 12.7422,19.3125 V 21 H 3.2891 q -0.0157,-0.6406 0.2031,-1.2188 0.3594,-0.9687 1.1562,-1.9062 0.7969,-0.9375 2.2969,-2.1719 2.3438,-1.9062 3.1641,-3.0234 0.8203,-1.1172 0.8203,-2.1172 0,-1.0469 -0.75,-1.7656 -0.75,-0.7188 -1.9531,-0.7188 -1.2657,0 -2.0313,0.7657 -0.7656,0.7656 -0.7656,2.1093 L 3.6172,10.7656 Q 3.8047,8.75 5.0156,7.6875 6.2266,6.625 8.2734,6.625 q 2.0469,0 3.25,1.1406 1.2032,1.1406 1.2032,2.8282 0,0.8593 -0.3516,1.6953 -0.3516,0.8359 -1.1641,1.75 -0.8125,0.914 -2.7031,2.5234 -1.5937,1.3281 -2.039,1.7969 -0.4454,0.4687 -0.7422,0.9531 z"
       id="path21" />
  </g>
  <g
     transform="translate(282,620)"
     style="font-size:22px;color-interpolation:linearRGB;fill:#262626;stroke:#262626;color-rendering:optimizeQuality;image-rendering:optimizeQuality;text-rendering:geometricPrecision"
     id="g23">
    <path
       style="stroke:none"
       d="m 1.7031,0 v -15.75 h 5.9375 q 1.5625,0 2.3906,0.1562 1.1563,0.1876 1.9454,0.7344 0.789,0.5469 1.2656,1.5235 0.4766,0.9765 0.4766,2.1484 0,2 -1.2813,3.3906 -1.2813,1.3907 -4.6094,1.3907 H 3.7812 V 0 Z m 2.0781,-8.2656 h 4.0782 q 2.0156,0 2.8594,-0.75 0.8437,-0.75 0.8437,-2.1094 0,-1 -0.4922,-1.7031 Q 10.5781,-13.5312 9.75,-13.75 9.2344,-13.8906 7.8125,-13.8906 H 3.7812 Z M 16.0957,0 v -11.4062 h 1.75 v 1.7343 q 0.6563,-1.2187 1.2266,-1.6093 0.5703,-0.3907 1.2422,-0.3907 0.9843,0 1.9843,0.625 L 21.6426,-9.25 q -0.7188,-0.4219 -1.4219,-0.4219 -0.6406,0 -1.1406,0.3828 -0.5,0.3829 -0.7188,1.0547 -0.3281,1.0313 -0.3281,2.2656 V 0 Z m 6.6387,-5.7031 q 0,-3.1719 1.7656,-4.7031 1.4688,-1.2657 3.5781,-1.2657 2.3594,0 3.8516,1.5469 1.4922,1.5469 1.4922,4.2656 0,2.2032 -0.6641,3.461 -0.664,1.2578 -1.9219,1.9609 -1.2578,0.7031 -2.7578,0.7031 -2.3906,0 -3.8672,-1.539 -1.4765,-1.5391 -1.4765,-4.4297 z m 1.9844,0 q 0,2.1875 0.9531,3.2812 0.9531,1.0938 2.4062,1.0938 1.4375,0 2.3985,-1.1016 0.9609,-1.1015 0.9609,-3.3359 0,-2.125 -0.9609,-3.211 -0.961,-1.0859 -2.3985,-1.0859 -1.4531,0 -2.4062,1.0859 -0.9531,1.086 -0.9531,3.2735 z M 37.4697,0 h -1.7968 v -15.75 h 1.9375 v 5.625 q 1.2187,-1.5469 3.125,-1.5469 1.0468,0 1.9921,0.4297 0.9454,0.4297 1.5469,1.1953 0.6016,0.7657 0.9453,1.8516 0.3438,1.0859 0.3438,2.3203 0,2.9375 -1.4453,4.5391 -1.4453,1.6015 -3.4766,1.6015 -2.0156,0 -3.1719,-1.6875 z m -0.0156,-5.7969 q 0,2.0625 0.5469,2.9688 0.9219,1.5 2.4687,1.5 1.2813,0 2.2032,-1.1016 0.9218,-1.1015 0.9218,-3.2891 0,-2.2343 -0.8906,-3.2968 -0.8906,-1.0625 -2.1406,-1.0625 -1.2656,0 -2.1875,1.1015 -0.9219,1.1016 -0.9219,3.1797 z m 18.2822,2.125 2,0.25 q -0.4843,1.75 -1.7578,2.7188 -1.2734,0.9687 -3.2734,0.9687 -2.5,0 -3.961,-1.5468 -1.4609,-1.5469 -1.4609,-4.3282 0,-2.875 1.4766,-4.4687 1.4765,-1.5938 3.8515,-1.5938 2.2813,0 3.7344,1.5625 1.4531,1.5625 1.4531,4.3906 0,0.1719 -0.0156,0.5157 h -8.5156 q 0.1094,1.875 1.0703,2.875 0.9609,1 2.3828,1 1.0625,0 1.8125,-0.5625 0.75,-0.5625 1.2031,-1.7813 z m -6.3593,-3.125 h 6.375 q -0.125,-1.4375 -0.7344,-2.1562 -0.9219,-1.125 -2.3906,-1.125 -1.3282,0 -2.2344,0.8906 -0.9063,0.8906 -1.0156,2.3906 z M 66.4277,0 v -15.75 h 2.0938 v 13.8906 h 7.75 V 0 Z m 11.3604,-5.7031 q 0,-3.1719 1.7656,-4.7031 1.4688,-1.2657 3.5781,-1.2657 2.3594,0 3.8516,1.5469 1.4922,1.5469 1.4922,4.2656 0,2.2032 -0.6641,3.461 -0.664,1.2578 -1.9219,1.9609 -1.2578,0.7031 -2.7578,0.7031 -2.3906,0 -3.8672,-1.539 -1.4765,-1.5391 -1.4765,-4.4297 z m 1.9844,0 q 0,2.1875 0.9531,3.2812 0.9531,1.0938 2.4062,1.0938 1.4375,0 2.3985,-1.1016 0.9609,-1.1015 0.9609,-3.3359 0,-2.125 -0.9609,-3.211 -0.961,-1.0859 -2.3985,-1.0859 -1.4531,0 -2.4062,1.0859 -0.9531,1.086 -0.9531,3.2735 z m 18.4072,1.5312 1.9062,0.2344 q -0.3125,1.9687 -1.5937,3.0859 -1.2813,1.1172 -3.1563,1.1172 -2.3437,0 -3.7656,-1.5312 -1.4219,-1.5313 -1.4219,-4.3906 0,-1.8594 0.6094,-3.2422 0.6094,-1.3828 1.8672,-2.0782 1.2578,-0.6953 2.7266,-0.6953 1.8593,0 3.039,0.9453 1.1797,0.9454 1.5078,2.6641 l -1.875,0.2969 Q 97.7578,-8.9219 97.0703,-9.5 q -0.6875,-0.5781 -1.6406,-0.5781 -1.4688,0 -2.3828,1.0469 -0.9141,1.0468 -0.9141,3.3124 0,2.2969 0.8828,3.3438 0.8828,1.0469 2.3047,1.0469 1.1406,0 1.8985,-0.7031 0.7578,-0.7032 0.9609,-2.1407 z m 11,2.7657 q -1.0625,0.9062 -2.0625,1.289 -1,0.3828 -2.1406,0.3828 -1.875,0 -2.8828,-0.9218 -1.0079,-0.9219 -1.0079,-2.3594 0,-0.8282 0.3829,-1.5235 0.3828,-0.6953 1,-1.1093 0.6171,-0.4141 1.3828,-0.6328 0.5781,-0.1563 1.7187,-0.2969 2.3438,-0.2813 3.4531,-0.6563 0.0157,-0.4062 0.0157,-0.5156 0,-1.1719 -0.5469,-1.6562 -0.75,-0.6563 -2.2031,-0.6563 -1.375,0 -2.0235,0.4766 -0.6484,0.4765 -0.9609,1.6953 l -1.8906,-0.2656 q 0.2656,-1.2188 0.8515,-1.961 0.586,-0.7422 1.7032,-1.1484 1.1171,-0.4063 2.6015,-0.4063 1.4531,0 2.3672,0.3438 0.9141,0.3437 1.3437,0.8672 0.4297,0.5234 0.6016,1.3203 0.0938,0.5 0.0938,1.7812 v 2.5782 q 0,2.7031 0.125,3.414 0.125,0.711 0.4843,1.3672 h -2.0156 q -0.2969,-0.6094 -0.3906,-1.4062 z m -0.1563,-4.3126 q -1.0468,0.4219 -3.1562,0.7188 -1.1875,0.1719 -1.6875,0.3906 -0.5,0.2188 -0.7656,0.6328 -0.2657,0.4141 -0.2657,0.9141 0,0.7813 0.586,1.2969 0.5859,0.5156 1.7109,0.5156 1.125,0 1.9922,-0.4922 0.8672,-0.4922 1.2734,-1.3359 0.3125,-0.6563 0.3125,-1.9375 z m 9.1729,3.9844 0.2812,1.7188 q -0.8125,0.1718 -1.4687,0.1718 -1.0469,0 -1.625,-0.3359 -0.5781,-0.3359 -0.8125,-0.875 -0.2344,-0.5391 -0.2344,-2.2891 v -6.5624 h -1.4219 v -1.5 h 1.4219 v -2.8282 l 1.9219,-1.1562 v 3.9844 h 1.9375 v 1.5 h -1.9375 v 6.6718 q 0,0.8282 0.1016,1.0625 0.1015,0.2344 0.3281,0.375 0.2265,0.1407 0.664,0.1407 0.3125,0 0.8438,-0.0782 z m 1.9092,-11.7968 V -15.75 h 1.9218 v 2.2188 z m 0,13.5312 v -11.4062 h 1.9218 V 0 Z m 4.1533,-5.7031 q 0,-3.1719 1.7656,-4.7031 1.4688,-1.2657 3.5781,-1.2657 2.3594,0 3.8516,1.5469 1.4922,1.5469 1.4922,4.2656 0,2.2032 -0.6641,3.461 -0.664,1.2578 -1.9218,1.9609 -1.2579,0.7031 -2.7579,0.7031 -2.3906,0 -3.8671,-1.539 -1.4766,-1.5391 -1.4766,-4.4297 z m 1.9844,0 q 0,2.1875 0.9531,3.2812 0.9531,1.0938 2.4062,1.0938 1.4375,0 2.3985,-1.1016 0.9609,-1.1015 0.9609,-3.3359 0,-2.125 -0.9609,-3.211 -0.961,-1.0859 -2.3985,-1.0859 -1.4531,0 -2.4062,1.0859 -0.9531,1.086 -0.9531,3.2735 z M 137.2129,0 v -11.4062 h 1.7344 v 1.625 q 1.2656,-1.8907 3.6406,-1.8907 1.0312,0 1.8906,0.375 0.8594,0.375 1.2891,0.9766 0.4297,0.6015 0.6015,1.4297 0.1094,0.5312 0.1094,1.875 V 0 h -1.9375 v -6.9375 q 0,-1.1875 -0.2187,-1.7734 -0.2188,-0.586 -0.7969,-0.9297 -0.5781,-0.3438 -1.3594,-0.3438 -1.2344,0 -2.125,0.7813 -0.8906,0.7812 -0.8906,2.9687 V 0 Z m 22.0351,4.625 q -1.5937,-2.0156 -2.7031,-4.7188 -1.1094,-2.7031 -1.1094,-5.6093 0,-2.5625 0.8282,-4.9063 0.9687,-2.7187 2.9843,-5.4062 h 1.3907 q -1.2969,2.2344 -1.7188,3.1875 -0.6562,1.4843 -1.0312,3.0937 -0.4688,2.0156 -0.4688,4.0469 0,5.1563 3.2188,10.3125 z"
       id="path22" />
  </g>
  <g
     transform="translate(444,620)"
     style="font-size:22px;font-family:mwb_cmr10;color-interpolation:linearRGB;fill:#262626;stroke:#262626;color-rendering:optimizeQuality;image-rendering:optimizeQuality;text-rendering:geometricPrecision"
     id="g24">
    <path
       style="stroke:none"
       d="m 1.1875,0 q -0.1719,0 -0.1719,-0.1719 0,-0.0156 0.0078,-0.0312 Q 1.0312,-0.2188 1.0312,-0.25 L 8.6094,-15.5156 Q 8.7031,-15.75 9,-15.75 h 0.2969 q 0.3125,0 0.4062,0.2344 L 17.2812,-0.25 q 0,0.0312 0.0079,0.0469 0.0078,0.0156 0.0078,0.0312 Q 17.2969,0 17.1094,0 Z M 2.6406,-1.7656 H 14.2344 L 8.4375,-13.4375 Z"
       id="path23" />
  </g>
  <g
     transform="translate(463,620)"
     style="font-size:22px;color-interpolation:linearRGB;fill:#262626;stroke:#262626;color-rendering:optimizeQuality;image-rendering:optimizeQuality;text-rendering:geometricPrecision"
     id="g25">
    <path
       style="stroke:none"
       d="M 8.0186,0 V -9.9062 H 6.3154 v -1.5 h 1.7032 v -1.2188 q 0,-1.1406 0.2031,-1.7031 0.2812,-0.75 0.9844,-1.2188 0.7031,-0.4687 1.9843,-0.4687 0.8125,0 1.7969,0.1875 l -0.2969,1.6875 q -0.5937,-0.1094 -1.125,-0.1094 -0.8906,0 -1.2578,0.375 -0.3672,0.375 -0.3672,1.4062 v 1.0626 h 2.2344 v 1.5 H 9.9404 V 0 Z m 5.6279,0 v -11.4062 h 1.75 v 1.7343 q 0.6562,-1.2187 1.2265,-1.6093 0.5704,-0.3907 1.2422,-0.3907 0.9844,0 1.9844,0.625 L 19.1934,-9.25 q -0.7188,-0.4219 -1.4219,-0.4219 -0.6406,0 -1.1406,0.3828 -0.5,0.3829 -0.7188,1.0547 -0.3281,1.0313 -0.3281,2.2656 V 0 Z m 6.6387,-5.7031 q 0,-3.1719 1.7656,-4.7031 1.4687,-1.2657 3.5781,-1.2657 2.3594,0 3.8516,1.5469 1.4922,1.5469 1.4922,4.2656 0,2.2032 -0.6641,3.461 -0.6641,1.2578 -1.9219,1.9609 -1.2578,0.7031 -2.7578,0.7031 -2.3906,0 -3.8672,-1.539 -1.4765,-1.5391 -1.4765,-4.4297 z m 1.9843,0 q 0,2.1875 0.9532,3.2812 0.9531,1.0938 2.4062,1.0938 1.4375,0 2.3984,-1.1016 0.961,-1.1015 0.961,-3.3359 0,-2.125 -0.961,-3.211 -0.9609,-1.0859 -2.3984,-1.0859 -1.4531,0 -2.4062,1.0859 -0.9532,1.086 -0.9532,3.2735 z M 33.2393,0 v -11.4062 h 1.7343 v 1.5937 q 0.5313,-0.8281 1.4219,-1.3437 0.8906,-0.5157 2.0313,-0.5157 1.2656,0 2.0781,0.5313 0.8125,0.5312 1.1406,1.4687 1.3594,-2 3.5313,-2 1.6875,0 2.6015,0.9453 0.9141,0.9454 0.9141,2.8985 V 0 h -1.9219 v -7.1875 q 0,-1.1563 -0.1875,-1.6719 -0.1875,-0.5156 -0.6797,-0.8203 -0.4922,-0.3047 -1.164,-0.3047 -1.2032,0 -2,0.7969 -0.7969,0.7969 -0.7969,2.5625 V 0 h -1.9219 v -7.4062 q 0,-1.2969 -0.4766,-1.9376 -0.4765,-0.6406 -1.5546,-0.6406 -0.8125,0 -1.5079,0.4297 -0.6953,0.4297 -1,1.25 -0.3046,0.8203 -0.3046,2.3828 V 0 Z m 31.8759,-4.1719 1.9063,0.2344 q -0.3125,1.9687 -1.5938,3.0859 -1.2812,1.1172 -3.1562,1.1172 -2.3438,0 -3.7656,-1.5312 -1.4219,-1.5313 -1.4219,-4.3906 0,-1.8594 0.6094,-3.2422 0.6093,-1.3828 1.8671,-2.0782 1.2579,-0.6953 2.7266,-0.6953 1.8594,0 3.0391,0.9453 1.1797,0.9454 1.5078,2.6641 l -1.875,0.2969 Q 64.6934,-8.9219 64.0059,-9.5 q -0.6875,-0.5781 -1.6407,-0.5781 -1.4687,0 -2.3828,1.0469 -0.914,1.0468 -0.914,3.3124 0,2.2969 0.8828,3.3438 0.8828,1.0469 2.3047,1.0469 1.1406,0 1.8984,-0.7031 0.7578,-0.7032 0.9609,-2.1407 z m 11.375,0.5 2,0.25 q -0.4843,1.75 -1.7578,2.7188 -1.2734,0.9687 -3.2734,0.9687 -2.5,0 -3.961,-1.5468 -1.4609,-1.5469 -1.4609,-4.3282 0,-2.875 1.4766,-4.4687 1.4765,-1.5938 3.8515,-1.5938 2.2813,0 3.7344,1.5625 1.4531,1.5625 1.4531,4.3906 0,0.1719 -0.0156,0.5157 h -8.5156 q 0.1094,1.875 1.0703,2.875 0.9609,1 2.3828,1 1.0625,0 1.8125,-0.5625 0.75,-0.5625 1.2031,-1.7813 z m -6.3593,-3.125 h 6.375 q -0.125,-1.4375 -0.7344,-2.1562 -0.9219,-1.125 -2.3906,-1.125 -1.3282,0 -2.2344,0.8906 -0.9063,0.8906 -1.0156,2.3906 z M 80.9131,0 v -11.4062 h 1.7344 v 1.625 q 1.2656,-1.8907 3.6406,-1.8907 1.0312,0 1.8906,0.375 0.8594,0.375 1.2891,0.9766 0.4297,0.6015 0.6015,1.4297 0.1094,0.5312 0.1094,1.875 V 0 h -1.9375 v -6.9375 q 0,-1.1875 -0.2187,-1.7734 -0.2188,-0.586 -0.7969,-0.9297 -0.5781,-0.3438 -1.3594,-0.3438 -1.2344,0 -2.125,0.7813 -0.8906,0.7812 -0.8906,2.9687 V 0 Z m 16.4541,-1.7344 0.2812,1.7188 q -0.8125,0.1718 -1.4687,0.1718 -1.0469,0 -1.625,-0.3359 -0.5781,-0.3359 -0.8125,-0.875 -0.2344,-0.5391 -0.2344,-2.2891 v -6.5624 h -1.4219 v -1.5 h 1.4219 v -2.8282 l 1.9219,-1.1562 v 3.9844 h 1.9375 v 1.5 h -1.9375 v 6.6718 q 0,0.8282 0.1015,1.0625 0.1016,0.2344 0.3282,0.375 0.2265,0.1407 0.664,0.1407 0.3125,0 0.8438,-0.0782 z m 9.706,-1.9375 2,0.25 q -0.4843,1.75 -1.7578,2.7188 -1.2734,0.9687 -3.2734,0.9687 -2.5,0 -3.9609,-1.5468 -1.461,-1.5469 -1.461,-4.3282 0,-2.875 1.4766,-4.4687 1.4765,-1.5938 3.8515,-1.5938 2.2813,0 3.7344,1.5625 1.4531,1.5625 1.4531,4.3906 0,0.1719 -0.0156,0.5157 h -8.5156 q 0.1094,1.875 1.0703,2.875 0.9609,1 2.3828,1 1.0625,0 1.8125,-0.5625 0.75,-0.5625 1.2031,-1.7813 z m -6.3593,-3.125 h 6.375 q -0.125,-1.4375 -0.7344,-2.1562 -0.9219,-1.125 -2.3906,-1.125 -1.3282,0 -2.2344,0.8906 -0.9063,0.8906 -1.0156,2.3906 z M 111.4648,0 v -11.4062 h 1.75 v 1.7343 q 0.6563,-1.2187 1.2266,-1.6093 0.5703,-0.3907 1.2422,-0.3907 0.9844,0 1.9844,0.625 l -0.6563,1.7969 q -0.7187,-0.4219 -1.4219,-0.4219 -0.6406,0 -1.1406,0.3828 -0.5,0.3829 -0.7187,1.0547 -0.3282,1.0313 -0.3282,2.2656 V 0 Z m 8.6231,4.625 h -1.3906 q 3.2187,-5.1562 3.2187,-10.3125 0,-2.0313 -0.4687,-4.0156 -0.3594,-1.6094 -1.0157,-3.0938 -0.4218,-0.9687 -1.7343,-3.2187 h 1.3906 q 2.0156,2.6875 2.9844,5.4062 0.8281,2.3438 0.8281,4.9063 0,2.9062 -1.1094,5.6093 -1.1094,2.7032 -2.7031,4.7188 z"
       id="path24" />
  </g>
  <g
     style="color-interpolation:linearRGB;fill:#262626;stroke:#262626;stroke-linejoin:round;color-rendering:optimizeQuality;image-rendering:optimizeQuality;text-rendering:geometricPrecision"
     id="g36">
    <line
       y2="47"
       style="fill:none"
       x1="109"
       x2="109"
       y1="561"
       id="line25" />
    <line
       y2="561"
       style="fill:none"
       x1="109"
       x2="115.51"
       y1="561"
       id="line26" />
    <line
       y2="509.60001"
       style="fill:none"
       x1="109"
       x2="115.51"
       y1="509.60001"
       id="line27" />
    <line
       y2="458.20001"
       style="fill:none"
       x1="109"
       x2="115.51"
       y1="458.20001"
       id="line28" />
    <line
       y2="406.79999"
       style="fill:none"
       x1="109"
       x2="115.51"
       y1="406.79999"
       id="line29" />
    <line
       y2="355.39999"
       style="fill:none"
       x1="109"
       x2="115.51"
       y1="355.39999"
       id="line30" />
    <line
       y2="304"
       style="fill:none"
       x1="109"
       x2="115.51"
       y1="304"
       id="line31" />
    <line
       y2="252.60001"
       style="fill:none"
       x1="109"
       x2="115.51"
       y1="252.60001"
       id="line32" />
    <line
       y2="201.2"
       style="fill:none"
       x1="109"
       x2="115.51"
       y1="201.2"
       id="line33" />
    <line
       y2="149.8"
       style="fill:none"
       x1="109"
       x2="115.51"
       y1="149.8"
       id="line34" />
    <line
       y2="98.400002"
       style="fill:none"
       x1="109"
       x2="115.51"
       y1="98.400002"
       id="line35" />
    <line
       y2="47"
       style="fill:none"
       x1="109"
       x2="115.51"
       y1="47"
       id="line36" />
  </g>
  <g
     transform="translate(101,561)"
     style="font-size:20px;color-interpolation:linearRGB;fill:#262626;stroke:#262626;color-rendering:optimizeQuality;image-rendering:optimizeQuality;text-rendering:geometricPrecision"
     id="g37">
    <path
       style="stroke:none"
       d="m -11.1719,0.9375 q 0,-2.5313 0.5235,-4.0859 0.5234,-1.5547 1.5546,-2.3907 1.0313,-0.8359 2.5938,-0.8359 1.1562,0 2.0234,0.4609 0.8672,0.461 1.4297,1.336 0.5625,0.875 0.8907,2.1328 0.3281,1.2578 0.3281,3.3828 0,2.5156 -0.5235,4.0625 Q -2.875,6.5469 -3.8984,7.3984 -4.9219,8.25 -6.5,8.25 q -2.0781,0 -3.25,-1.4844 -1.4219,-1.7968 -1.4219,-5.8281 z m 1.8125,0 q 0,3.5313 0.8203,4.6953 0.8203,1.1641 2.0391,1.1641 1.2031,0 2.0312,-1.1719 0.8282,-1.1719 0.8282,-4.6875 0,-3.5313 -0.8282,-4.6953 -0.8281,-1.1641 -2.0468,-1.1641 -1.2188,0 -1.9375,1.0313 -0.9063,1.2968 -0.9063,4.8281 z"
       id="path36" />
  </g>
  <g
     transform="translate(101,509.6)"
     style="font-size:20px;color-interpolation:linearRGB;fill:#262626;stroke:#262626;color-rendering:optimizeQuality;image-rendering:optimizeQuality;text-rendering:geometricPrecision"
     id="g38">
    <path
       style="stroke:none"
       d="m -27.1719,0.9375 q 0,-2.5313 0.5235,-4.0859 0.5234,-1.5547 1.5546,-2.3907 1.0313,-0.8359 2.5938,-0.8359 1.1562,0 2.0234,0.4609 0.8672,0.461 1.4297,1.336 0.5625,0.875 0.8907,2.1328 0.3281,1.2578 0.3281,3.3828 0,2.5156 -0.5235,4.0625 -0.5234,1.5469 -1.5468,2.3984 Q -20.9219,8.25 -22.5,8.25 q -2.0781,0 -3.25,-1.4844 -1.4219,-1.7968 -1.4219,-5.8281 z m 1.8125,0 q 0,3.5313 0.8203,4.6953 0.8203,1.1641 2.0391,1.1641 1.2031,0 2.0312,-1.1719 0.8282,-1.1719 0.8282,-4.6875 0,-3.5313 -0.8282,-4.6953 -0.8281,-1.1641 -2.0468,-1.1641 -1.2188,0 -1.9375,1.0313 -0.9063,1.2968 -0.9063,4.8281 z M -15.0645,8 V 6 h 2 V 8 Z M -3.8672,8 H -5.6328 V -3.2031 q -0.625,0.6093 -1.6563,1.2109 -1.0312,0.6016 -1.8593,0.9141 v -1.7031 q 1.4843,-0.6876 2.5859,-1.6797 1.1016,-0.9922 1.5547,-1.9141 h 1.1406 z"
       id="path37" />
  </g>
  <g
     transform="translate(101,458.2)"
     style="font-size:20px;color-interpolation:linearRGB;fill:#262626;stroke:#262626;color-rendering:optimizeQuality;image-rendering:optimizeQuality;text-rendering:geometricPrecision"
     id="g39">
    <path
       style="stroke:none"
       d="m -27.1719,0.9375 q 0,-2.5313 0.5235,-4.0859 0.5234,-1.5547 1.5546,-2.3907 1.0313,-0.8359 2.5938,-0.8359 1.1562,0 2.0234,0.4609 0.8672,0.461 1.4297,1.336 0.5625,0.875 0.8907,2.1328 0.3281,1.2578 0.3281,3.3828 0,2.5156 -0.5235,4.0625 -0.5234,1.5469 -1.5468,2.3984 Q -20.9219,8.25 -22.5,8.25 q -2.0781,0 -3.25,-1.4844 -1.4219,-1.7968 -1.4219,-5.8281 z m 1.8125,0 q 0,3.5313 0.8203,4.6953 0.8203,1.1641 2.0391,1.1641 1.2031,0 2.0312,-1.1719 0.8282,-1.1719 0.8282,-4.6875 0,-3.5313 -0.8282,-4.6953 -0.8281,-1.1641 -2.0468,-1.1641 -1.2188,0 -1.9375,1.0313 -0.9063,1.2968 -0.9063,4.8281 z M -15.0645,8 V 6 h 2 V 8 Z M -1.2578,6.3125 V 8 h -9.4531 q -0.0157,-0.6406 0.2031,-1.2188 0.3594,-0.9687 1.1562,-1.9062 0.7969,-0.9375 2.2969,-2.1719 2.3438,-1.9062 3.1641,-3.0234 0.8203,-1.1172 0.8203,-2.1172 0,-1.0469 -0.75,-1.7656 -0.75,-0.7188 -1.9531,-0.7188 -1.2657,0 -2.0313,0.7657 -0.7656,0.7656 -0.7656,2.1093 l -1.8125,-0.1875 q 0.1875,-2.0156 1.3984,-3.0781 1.211,-1.0625 3.2578,-1.0625 2.0469,0 3.25,1.1406 1.2032,1.1406 1.2032,2.8282 0,0.8593 -0.3516,1.6953 -0.3516,0.8359 -1.1641,1.75 -0.8125,0.914 -2.7031,2.5234 -1.5937,1.3281 -2.039,1.7969 -0.4454,0.4687 -0.7422,0.9531 z"
       id="path38" />
  </g>
  <g
     transform="translate(101,406.8)"
     style="font-size:20px;color-interpolation:linearRGB;fill:#262626;stroke:#262626;color-rendering:optimizeQuality;image-rendering:optimizeQuality;text-rendering:geometricPrecision"
     id="g40">
    <path
       style="stroke:none"
       d="m -27.1719,0.9375 q 0,-2.5313 0.5235,-4.0859 0.5234,-1.5547 1.5546,-2.3907 1.0313,-0.8359 2.5938,-0.8359 1.1562,0 2.0234,0.4609 0.8672,0.461 1.4297,1.336 0.5625,0.875 0.8907,2.1328 0.3281,1.2578 0.3281,3.3828 0,2.5156 -0.5235,4.0625 -0.5234,1.5469 -1.5468,2.3984 Q -20.9219,8.25 -22.5,8.25 q -2.0781,0 -3.25,-1.4844 -1.4219,-1.7968 -1.4219,-5.8281 z m 1.8125,0 q 0,3.5313 0.8203,4.6953 0.8203,1.1641 2.0391,1.1641 1.2031,0 2.0312,-1.1719 0.8282,-1.1719 0.8282,-4.6875 0,-3.5313 -0.8282,-4.6953 -0.8281,-1.1641 -2.0468,-1.1641 -1.2188,0 -1.9375,1.0313 -0.9063,1.2968 -0.9063,4.8281 z M -15.0645,8 V 6 h 2 v 2 z m 4.5879,-3.7812 1.75,-0.2344 q 0.3125,1.5 1.0391,2.1562 0.7266,0.6563 1.7734,0.6563 1.2344,0 2.086,-0.8594 0.8515,-0.8594 0.8515,-2.125 0,-1.2187 -0.789,-2 -0.7891,-0.7813 -2.0078,-0.7813 -0.5,0 -1.2344,0.1876 l 0.1875,-1.5469 q 0.1719,0.0312 0.2812,0.0312 1.125,0 2.0235,-0.5859 0.8984,-0.586 0.8984,-1.8047 0,-0.9687 -0.6562,-1.6094 -0.6563,-0.6406 -1.6875,-0.6406 -1.0157,0 -1.7032,0.6484 -0.6875,0.6485 -0.875,1.9297 l -1.7656,-0.3125 q 0.3281,-1.7656 1.4688,-2.7343 1.1406,-0.9688 2.8437,-0.9688 1.1719,0 2.1563,0.5 0.9843,0.5 1.5078,1.375 0.5234,0.875 0.5234,1.8438 0,0.9218 -0.5,1.6874 -0.5,0.7657 -1.4687,1.2188 1.2656,0.2812 1.9687,1.2109 0.7031,0.9297 0.7031,2.3047 0,1.875 -1.3672,3.1797 Q -3.8359,8.25 -5.9297,8.25 -7.8203,8.25 -9.0625,7.125 -10.3047,6 -10.4766,4.2188 Z"
       id="path39" />
  </g>
  <g
     transform="translate(101,355.4)"
     style="font-size:20px;color-interpolation:linearRGB;fill:#262626;stroke:#262626;color-rendering:optimizeQuality;image-rendering:optimizeQuality;text-rendering:geometricPrecision"
     id="g41">
    <path
       style="stroke:none"
       d="m -27.1719,0.9375 q 0,-2.5313 0.5235,-4.0859 0.5234,-1.5547 1.5546,-2.3907 1.0313,-0.8359 2.5938,-0.8359 1.1562,0 2.0234,0.4609 0.8672,0.461 1.4297,1.336 0.5625,0.875 0.8907,2.1328 0.3281,1.2578 0.3281,3.3828 0,2.5156 -0.5235,4.0625 -0.5234,1.5469 -1.5468,2.3984 Q -20.9219,8.25 -22.5,8.25 q -2.0781,0 -3.25,-1.4844 -1.4219,-1.7968 -1.4219,-5.8281 z m 1.8125,0 q 0,3.5313 0.8203,4.6953 0.8203,1.1641 2.0391,1.1641 1.2031,0 2.0312,-1.1719 0.8282,-1.1719 0.8282,-4.6875 0,-3.5313 -0.8282,-4.6953 -0.8281,-1.1641 -2.0468,-1.1641 -1.2188,0 -1.9375,1.0313 -0.9063,1.2968 -0.9063,4.8281 z M -15.0645,8 V 6 h 2 V 8 Z M -4.8516,8 V 4.5781 h -6.2187 v -1.625 l 6.5312,-9.2656 h 1.4375 v 9.2656 h 1.9375 v 1.625 H -3.1016 V 8 Z m 0,-5.0469 V -3.5 l -4.4843,6.4531 z"
       id="path40" />
  </g>
  <g
     transform="translate(101,304)"
     style="font-size:20px;color-interpolation:linearRGB;fill:#262626;stroke:#262626;color-rendering:optimizeQuality;image-rendering:optimizeQuality;text-rendering:geometricPrecision"
     id="g42">
    <path
       style="stroke:none"
       d="m -27.1719,0.9375 q 0,-2.5313 0.5235,-4.0859 0.5234,-1.5547 1.5546,-2.3907 1.0313,-0.8359 2.5938,-0.8359 1.1562,0 2.0234,0.4609 0.8672,0.461 1.4297,1.336 0.5625,0.875 0.8907,2.1328 0.3281,1.2578 0.3281,3.3828 0,2.5156 -0.5235,4.0625 -0.5234,1.5469 -1.5468,2.3984 Q -20.9219,8.25 -22.5,8.25 q -2.0781,0 -3.25,-1.4844 -1.4219,-1.7968 -1.4219,-5.8281 z m 1.8125,0 q 0,3.5313 0.8203,4.6953 0.8203,1.1641 2.0391,1.1641 1.2031,0 2.0312,-1.1719 0.8282,-1.1719 0.8282,-4.6875 0,-3.5313 -0.8282,-4.6953 -0.8281,-1.1641 -2.0468,-1.1641 -1.2188,0 -1.9375,1.0313 -0.9063,1.2968 -0.9063,4.8281 z M -15.0645,8 V 6 h 2 v 2 z m 4.5723,-3.75 1.8438,-0.1562 q 0.2031,1.3437 0.9531,2.0234 0.75,0.6797 1.8125,0.6797 1.2656,0 2.1406,-0.9531 0.875,-0.9532 0.875,-2.5469 0,-1.5 -0.8437,-2.3672 -0.8438,-0.8672 -2.2032,-0.8672 -0.8593,0 -1.539,0.3828 -0.6797,0.3828 -1.0703,1.0078 l -1.6563,-0.2187 1.3906,-7.3594 h 7.125 v 1.6875 h -5.7187 l -0.7656,3.8437 Q -6.8672,-1.5 -5.4453,-1.5 q 1.875,0 3.1641,1.3047 1.289,1.3047 1.289,3.3359 0,1.9532 -1.1406,3.3594 -1.375,1.75 -3.75,1.75 -1.9531,0 -3.1953,-1.0938 -1.2422,-1.0937 -1.4141,-2.9062 z"
       id="path41" />
  </g>
  <g
     transform="translate(101,252.6)"
     style="font-size:20px;color-interpolation:linearRGB;fill:#262626;stroke:#262626;color-rendering:optimizeQuality;image-rendering:optimizeQuality;text-rendering:geometricPrecision"
     id="g43">
    <path
       style="stroke:none"
       d="m -27.1719,0.9375 q 0,-2.5313 0.5235,-4.0859 0.5234,-1.5547 1.5546,-2.3907 1.0313,-0.8359 2.5938,-0.8359 1.1562,0 2.0234,0.4609 0.8672,0.461 1.4297,1.336 0.5625,0.875 0.8907,2.1328 0.3281,1.2578 0.3281,3.3828 0,2.5156 -0.5235,4.0625 -0.5234,1.5469 -1.5468,2.3984 Q -20.9219,8.25 -22.5,8.25 q -2.0781,0 -3.25,-1.4844 -1.4219,-1.7968 -1.4219,-5.8281 z m 1.8125,0 q 0,3.5313 0.8203,4.6953 0.8203,1.1641 2.0391,1.1641 1.2031,0 2.0312,-1.1719 0.8282,-1.1719 0.8282,-4.6875 0,-3.5313 -0.8282,-4.6953 -0.8281,-1.1641 -2.0468,-1.1641 -1.2188,0 -1.9375,1.0313 -0.9063,1.2968 -0.9063,4.8281 z M -15.0645,8 V 6 h 2 v 2 z m 13.6973,-10.8125 -1.75,0.1406 q -0.2344,-1.0312 -0.6562,-1.5 -0.7188,-0.7656 -1.7657,-0.7656 -0.8437,0 -1.4687,0.4687 -0.8281,0.6094 -1.3125,1.7735 -0.4844,1.1641 -0.5,3.3047 0.6406,-0.9532 1.5547,-1.4219 0.914,-0.4687 1.9297,-0.4687 1.75,0 2.9843,1.289 1.2344,1.2891 1.2344,3.336 0,1.3593 -0.5781,2.5156 -0.5781,1.1562 -1.5938,1.7734 -1.0156,0.6172 -2.3125,0.6172 -2.1875,0 -3.5781,-1.6172 -1.3906,-1.6172 -1.3906,-5.3359 0,-4.1407 1.5312,-6.0313 1.3438,-1.6406 3.6094,-1.6406 1.6875,0 2.7656,0.9453 1.0782,0.9453 1.2969,2.6172 z m -7.1719,6.1719 q 0,0.9062 0.3829,1.7344 0.3828,0.8281 1.0781,1.2656 0.6953,0.4375 1.4453,0.4375 1.125,0 1.9219,-0.8985 Q -2.9141,5 -2.9141,3.4531 q 0,-1.4843 -0.789,-2.3359 -0.7891,-0.8516 -1.9922,-0.8516 -1.1875,0 -2.0156,0.8516 -0.8282,0.8516 -0.8282,2.2422 z"
       id="path42" />
  </g>
  <g
     transform="translate(101,201.2)"
     style="font-size:20px;color-interpolation:linearRGB;fill:#262626;stroke:#262626;color-rendering:optimizeQuality;image-rendering:optimizeQuality;text-rendering:geometricPrecision"
     id="g44">
    <path
       style="stroke:none"
       d="m -27.1719,0.9375 q 0,-2.5313 0.5235,-4.0859 0.5234,-1.5547 1.5546,-2.3907 1.0313,-0.8359 2.5938,-0.8359 1.1562,0 2.0234,0.4609 0.8672,0.461 1.4297,1.336 0.5625,0.875 0.8907,2.1328 0.3281,1.2578 0.3281,3.3828 0,2.5156 -0.5235,4.0625 -0.5234,1.5469 -1.5468,2.3984 Q -20.9219,8.25 -22.5,8.25 q -2.0781,0 -3.25,-1.4844 -1.4219,-1.7968 -1.4219,-5.8281 z m 1.8125,0 q 0,3.5313 0.8203,4.6953 0.8203,1.1641 2.0391,1.1641 1.2031,0 2.0312,-1.1719 0.8282,-1.1719 0.8282,-4.6875 0,-3.5313 -0.8282,-4.6953 -0.8281,-1.1641 -2.0468,-1.1641 -1.2188,0 -1.9375,1.0313 -0.9063,1.2968 -0.9063,4.8281 z M -15.0645,8 V 6 h 2 v 2 z m 4.6973,-12.4375 V -6.125 h 9.2656 v 1.3594 q -1.375,1.4531 -2.7187,3.8672 -1.3438,2.414 -2.0625,4.9609 Q -6.4141,5.8594 -6.5703,8 h -1.7969 q 0.0313,-1.6875 0.6641,-4.0781 0.6328,-2.3907 1.8203,-4.6172 1.1875,-2.2266 2.5156,-3.7422 z"
       id="path43" />
  </g>
  <g
     transform="translate(101,149.8)"
     style="font-size:20px;color-interpolation:linearRGB;fill:#262626;stroke:#262626;color-rendering:optimizeQuality;image-rendering:optimizeQuality;text-rendering:geometricPrecision"
     id="g45">
    <path
       style="stroke:none"
       d="m -27.1719,0.9375 q 0,-2.5313 0.5235,-4.0859 0.5234,-1.5547 1.5546,-2.3907 1.0313,-0.8359 2.5938,-0.8359 1.1562,0 2.0234,0.4609 0.8672,0.461 1.4297,1.336 0.5625,0.875 0.8907,2.1328 0.3281,1.2578 0.3281,3.3828 0,2.5156 -0.5235,4.0625 -0.5234,1.5469 -1.5468,2.3984 Q -20.9219,8.25 -22.5,8.25 q -2.0781,0 -3.25,-1.4844 -1.4219,-1.7968 -1.4219,-5.8281 z m 1.8125,0 q 0,3.5313 0.8203,4.6953 0.8203,1.1641 2.0391,1.1641 1.2031,0 2.0312,-1.1719 0.8282,-1.1719 0.8282,-4.6875 0,-3.5313 -0.8282,-4.6953 -0.8281,-1.1641 -2.0468,-1.1641 -1.2188,0 -1.9375,1.0313 -0.9063,1.2968 -0.9063,4.8281 z M -15.0645,8 V 6 h 2 v 2 z m 7.2754,-7.7656 q -1.0937,-0.4063 -1.6171,-1.1485 -0.5235,-0.7421 -0.5235,-1.7734 0,-1.5625 1.125,-2.625 1.125,-1.0625 2.9844,-1.0625 1.875,0 3.0156,1.0859 1.1406,1.086 1.1406,2.6485 0,1 -0.5234,1.7344 -0.5234,0.7343 -1.5859,1.1406 1.3281,0.4375 2.0156,1.3906 0.6875,0.9531 0.6875,2.2812 0,1.8438 -1.3047,3.0938 -1.3047,1.25 -3.4141,1.25 -2.125,0 -3.4218,-1.2578 -1.2969,-1.2578 -1.2969,-3.1328 0,-1.3906 0.7109,-2.336 0.711,-0.9453 2.0078,-1.289 z M -8.1328,-2.75 q 0,1.0156 0.6562,1.6641 0.6563,0.6484 1.6875,0.6484 1.0157,0 1.6719,-0.6406 0.6563,-0.6407 0.6563,-1.5625 0,-0.9688 -0.6719,-1.6328 -0.6719,-0.6641 -1.6719,-0.6641 -1,0 -1.6641,0.6484 -0.664,0.6485 -0.664,1.5391 z m -0.5625,6.625 q 0,0.75 0.3515,1.4531 0.3516,0.7031 1.0547,1.086 0.7032,0.3828 1.5157,0.3828 1.2656,0 2.0859,-0.8125 0.8203,-0.8125 0.8203,-2.0625 0,-1.2657 -0.8437,-2.0938 Q -4.5547,1 -5.8359,1 -7.0703,1 -7.8828,1.8203 -8.6953,2.6406 -8.6953,3.875 Z"
       id="path44" />
  </g>
  <g
     transform="translate(101,98.4)"
     style="font-size:20px;color-interpolation:linearRGB;fill:#262626;stroke:#262626;color-rendering:optimizeQuality;image-rendering:optimizeQuality;text-rendering:geometricPrecision"
     id="g46">
    <path
       style="stroke:none"
       d="m -27.1719,0.9375 q 0,-2.5313 0.5235,-4.0859 0.5234,-1.5547 1.5546,-2.3907 1.0313,-0.8359 2.5938,-0.8359 1.1562,0 2.0234,0.4609 0.8672,0.461 1.4297,1.336 0.5625,0.875 0.8907,2.1328 0.3281,1.2578 0.3281,3.3828 0,2.5156 -0.5235,4.0625 -0.5234,1.5469 -1.5468,2.3984 Q -20.9219,8.25 -22.5,8.25 q -2.0781,0 -3.25,-1.4844 -1.4219,-1.7968 -1.4219,-5.8281 z m 1.8125,0 q 0,3.5313 0.8203,4.6953 0.8203,1.1641 2.0391,1.1641 1.2031,0 2.0312,-1.1719 0.8282,-1.1719 0.8282,-4.6875 0,-3.5313 -0.8282,-4.6953 -0.8281,-1.1641 -2.0468,-1.1641 -1.2188,0 -1.9375,1.0313 -0.9063,1.2968 -0.9063,4.8281 z M -15.0645,8 V 6 h 2 v 2 z m 4.8379,-3.3125 1.6875,-0.1563 q 0.2188,1.1876 0.8203,1.7266 0.6016,0.5391 1.5547,0.5391 0.8125,0 1.4219,-0.3672 0.6094,-0.3672 1,-0.9922 0.3906,-0.625 0.6563,-1.6797 0.2656,-1.0547 0.2656,-2.1484 0,-0.1094 -0.0156,-0.3438 -0.5313,0.8282 -1.4375,1.3516 -0.9063,0.5234 -1.9844,0.5234 -1.7656,0 -3,-1.289 -1.2344,-1.2891 -1.2344,-3.3985 0,-2.1719 1.2891,-3.5 1.289,-1.3281 3.2109,-1.3281 1.4063,0 2.5625,0.75 1.1563,0.75 1.7578,2.1406 0.6016,1.3906 0.6016,4.0313 0,2.75 -0.6016,4.375 -0.6015,1.625 -1.7734,2.4765 -1.1719,0.8516 -2.75,0.8516 -1.6875,0 -2.75,-0.9375 -1.0625,-0.9375 -1.2813,-2.625 z m 7.2032,-6.3125 q 0,-1.5156 -0.8047,-2.4062 -0.8047,-0.8907 -1.9453,-0.8907 -1.1719,0 -2.0391,0.961 -0.8672,0.9609 -0.8672,2.4765 0,1.375 0.8203,2.2266 0.8203,0.8516 2.0391,0.8516 1.2187,0 2.0078,-0.8516 0.7891,-0.8516 0.7891,-2.3672 z"
       id="path45" />
  </g>
  <g
     transform="translate(101,47)"
     style="font-size:20px;color-interpolation:linearRGB;fill:#262626;stroke:#262626;color-rendering:optimizeQuality;image-rendering:optimizeQuality;text-rendering:geometricPrecision"
     id="g47">
    <path
       style="stroke:none"
       d="M -4.5469,8 H -6.3125 V -3.2031 q -0.625,0.6093 -1.6563,1.2109 Q -9,-1.3906 -9.8281,-1.0781 v -1.7031 q 1.4843,-0.6876 2.5859,-1.6797 1.1016,-0.9922 1.5547,-1.9141 h 1.1406 z"
       id="path46" />
  </g>
  <g
     transform="rotate(-90,185.4999,118.4999)"
     style="font-size:22px;color-interpolation:linearRGB;fill:#262626;stroke:#262626;color-rendering:optimizeQuality;image-rendering:optimizeQuality;text-rendering:geometricPrecision"
     id="g48">
    <path
       style="stroke:none"
       d="m -134.7969,-5 v -15.75 h 5.9375 q 1.5625,0 2.3906,0.1562 1.1563,0.1876 1.9454,0.7344 0.789,0.5469 1.2656,1.5235 0.4766,0.9765 0.4766,2.1484 0,2 -1.2813,3.3906 -1.2813,1.3907 -4.6094,1.3907 h -4.0469 V -5 Z m 2.0781,-8.2656 h 4.0782 q 2.0156,0 2.8594,-0.75 0.8437,-0.75 0.8437,-2.1094 0,-1 -0.4922,-1.7031 -0.4922,-0.7031 -1.3203,-0.9219 -0.5156,-0.1406 -1.9375,-0.1406 h -4.0313 z M -120.4043,-5 v -11.4062 h 1.75 v 1.7343 q 0.6563,-1.2187 1.2266,-1.6093 0.5703,-0.3907 1.2422,-0.3907 0.9843,0 1.9843,0.625 l -0.6562,1.7969 q -0.7188,-0.4219 -1.4219,-0.4219 -0.6406,0 -1.1406,0.3828 -0.5,0.3829 -0.7188,1.0547 -0.3281,1.0313 -0.3281,2.2656 V -5 Z m 6.6387,-5.7031 q 0,-3.1719 1.7656,-4.7031 1.4688,-1.2657 3.5781,-1.2657 2.3594,0 3.8516,1.5469 1.4922,1.5469 1.4922,4.2656 0,2.2032 -0.6641,3.461 -0.664,1.2578 -1.9219,1.9609 -1.2578,0.7031 -2.7578,0.7031 -2.3906,0 -3.8672,-1.539 -1.4765,-1.5391 -1.4765,-4.4297 z m 1.9844,0 q 0,2.1875 0.9531,3.2812 0.9531,1.0938 2.4062,1.0938 1.4375,0 2.3985,-1.1016 0.9609,-1.1015 0.9609,-3.3359 0,-2.125 -0.9609,-3.211 -0.961,-1.0859 -2.3985,-1.0859 -1.4531,0 -2.4062,1.0859 -0.9531,1.086 -0.9531,3.2735 z M -99.0303,-5 h -1.7968 v -15.75 h 1.9375 v 5.625 q 1.2187,-1.5469 3.125,-1.5469 1.0468,0 1.9921,0.4297 0.9454,0.4297 1.5469,1.1953 0.6016,0.7657 0.9453,1.8516 0.3438,1.0859 0.3438,2.3203 0,2.9375 -1.4453,4.5391 -1.4453,1.6015 -3.4766,1.6015 -2.0156,0 -3.1719,-1.6875 z m -0.0156,-5.7969 q 0,2.0625 0.5469,2.9688 0.9219,1.5 2.4687,1.5 1.2813,0 2.2032,-1.1016 0.9218,-1.1015 0.9218,-3.2891 0,-2.2343 -0.8906,-3.2968 -0.8906,-1.0625 -2.1406,-1.0625 -1.2656,0 -2.1875,1.1015 -0.9219,1.1016 -0.9219,3.1797 z m 17.9072,4.3907 q -1.0625,0.9062 -2.0625,1.289 -1,0.3828 -2.1406,0.3828 -1.875,0 -2.8828,-0.9218 -1.0078,-0.9219 -1.0078,-2.3594 0,-0.8282 0.3828,-1.5235 0.3828,-0.6953 1,-1.1093 0.6172,-0.4141 1.3828,-0.6328 0.5781,-0.1563 1.7188,-0.2969 2.3437,-0.2813 3.4531,-0.6563 0.0156,-0.4062 0.0156,-0.5156 0,-1.1719 -0.5469,-1.6562 -0.75,-0.6563 -2.2031,-0.6563 -1.375,0 -2.0234,0.4766 -0.6485,0.4765 -0.961,1.6953 l -1.8906,-0.2656 q 0.2656,-1.2188 0.8516,-1.961 0.5859,-0.7422 1.7031,-1.1484 1.1172,-0.4063 2.6016,-0.4063 1.4531,0 2.3671,0.3438 0.9141,0.3437 1.3438,0.8672 0.4297,0.5234 0.6016,1.3203 0.0937,0.5 0.0937,1.7812 v 2.5782 q 0,2.7031 0.125,3.414 0.125,0.711 0.4844,1.3672 h -2.0156 q -0.2969,-0.6094 -0.3907,-1.4062 z m -0.1562,-4.3126 q -1.0469,0.4219 -3.1563,0.7188 -1.1875,0.1719 -1.6875,0.3906 -0.5,0.2188 -0.7656,0.6328 -0.2656,0.4141 -0.2656,0.9141 0,0.7813 0.5859,1.2969 0.586,0.5156 1.711,0.5156 1.125,0 1.9921,-0.4922 0.8672,-0.4922 1.2735,-1.3359 0.3125,-0.6563 0.3125,-1.9375 z M -74.5596,-5 h -1.7968 v -15.75 h 1.9375 v 5.625 q 1.2187,-1.5469 3.125,-1.5469 1.0468,0 1.9921,0.4297 0.9454,0.4297 1.5469,1.1953 0.6016,0.7657 0.9453,1.8516 0.3438,1.0859 0.3438,2.3203 0,2.9375 -1.4453,4.5391 -1.4453,1.6015 -3.4766,1.6015 -2.0156,0 -3.1719,-1.6875 z m -0.0156,-5.7969 q 0,2.0625 0.5469,2.9688 0.9219,1.5 2.4687,1.5 1.2813,0 2.2032,-1.1016 0.9218,-1.1015 0.9218,-3.2891 0,-2.2343 -0.8906,-3.2968 -0.8906,-1.0625 -2.1406,-1.0625 -1.2656,0 -2.1875,1.1015 -0.9219,1.1016 -0.9219,3.1797 z m 10.4854,-7.7343 V -20.75 h 1.9218 v 2.2188 z m 0,13.5312 v -11.4062 h 1.9218 V -5 Z m 4.8252,0 v -15.75 h 1.9375 V -5 Z m 4.9501,-13.5312 V -20.75 h 1.9219 v 2.2188 z m 0,13.5312 v -11.4062 h 1.9219 V -5 Z m 9.0909,-1.7344 0.2812,1.7188 q -0.8125,0.1718 -1.4687,0.1718 -1.0469,0 -1.625,-0.3359 -0.5782,-0.3359 -0.8125,-0.875 -0.2344,-0.5391 -0.2344,-2.2891 v -6.5624 h -1.4219 v -1.5 h 1.4219 v -2.8282 l 1.9219,-1.1562 v 3.9844 h 1.9375 v 1.5 h -1.9375 v 6.6718 q 0,0.8282 0.1015,1.0625 0.1016,0.2344 0.3282,0.375 0.2265,0.1407 0.664,0.1407 0.3125,0 0.8438,-0.0782 z m 1.7998,6.125 -0.2032,-1.8125 q 0.625,0.1719 1.0938,0.1719 0.6562,0 1.0391,-0.2109 0.3828,-0.211 0.6328,-0.6016 0.1875,-0.2969 0.5937,-1.4375 0.0469,-0.1719 0.1719,-0.4844 l -4.3281,-11.4218 h 2.0781 l 2.375,6.6093 q 0.4687,1.25 0.8281,2.6407 0.3281,-1.3282 0.7969,-2.6094 l 2.4375,-6.6406 h 1.9375 l -4.3438,11.5937 q -0.7031,1.8906 -1.0937,2.5937 -0.5156,0.9532 -1.1797,1.3985 -0.6641,0.4453 -1.5859,0.4453 -0.5625,0 -1.25,-0.2344 z m 16.4873,-10.0937 q 0,-3.1719 1.7656,-4.7031 1.4688,-1.2657 3.5781,-1.2657 2.3594,0 3.8516,1.5469 1.4922,1.5469 1.4922,4.2656 0,2.2032 -0.6641,3.461 -0.664,1.2578 -1.9219,1.9609 -1.2578,0.7031 -2.7578,0.7031 -2.3906,0 -3.8672,-1.539 -1.4765,-1.5391 -1.4765,-4.4297 z m 1.9844,0 q 0,2.1875 0.9531,3.2812 0.9531,1.0938 2.4062,1.0938 1.4375,0 2.3985,-1.1016 0.9609,-1.1015 0.9609,-3.3359 0,-2.125 -0.9609,-3.211 -0.961,-1.0859 -2.3985,-1.0859 -1.4531,0 -2.4062,1.0859 -0.9531,1.086 -0.9531,3.2735 z M -13.5293,-5 v -9.9062 h -1.7031 v -1.5 h 1.7031 v -1.2188 q 0,-1.1406 0.2031,-1.7031 0.2813,-0.75 0.9844,-1.2188 0.7031,-0.4687 1.9844,-0.4687 0.8125,0 1.7969,0.1875 l -0.2969,1.6875 q -0.5938,-0.1094 -1.125,-0.1094 -0.8906,0 -1.2578,0.375 -0.3672,0.375 -0.3672,1.4062 v 1.0626 h 2.2344 v 1.5 h -2.2344 V -5 Z M 9.7266,-10.5156 11.8047,-10 q -0.6563,2.5781 -2.3594,3.9219 -1.7031,1.3437 -4.1562,1.3437 -2.5469,0 -4.1407,-1.039 -1.5937,-1.0391 -2.4296,-3 -0.836,-1.961 -0.836,-4.2266 0,-2.4531 0.9375,-4.2812 0.9375,-1.8282 2.6797,-2.7813 1.7422,-0.9531 3.8203,-0.9531 2.3594,0 3.9688,1.2031 1.6093,1.2031 2.25,3.375 l -2.0469,0.4844 q -0.5469,-1.7188 -1.5938,-2.5 -1.0468,-0.7813 -2.625,-0.7813 -1.8125,0 -3.0312,0.8672 -1.2188,0.8672 -1.711,2.336 -0.4921,1.4687 -0.4921,3.0312 0,2 0.5859,3.5 0.5859,1.5 1.8203,2.2422 1.2344,0.7422 2.6719,0.7422 1.75,0 2.9609,-1.0078 1.211,-1.0078 1.6485,-2.9922 z M 14.1299,-5 v -15.75 h 1.9375 v 5.6562 q 1.3437,-1.5781 3.4062,-1.5781 1.2657,0 2.2032,0.5 0.9375,0.5 1.3437,1.3828 0.4063,0.8829 0.4063,2.5547 V -5 h -1.9375 v -7.2344 q 0,-1.4531 -0.6329,-2.1094 Q 20.2236,-15 19.083,-15 q -0.8594,0 -1.6172,0.4453 -0.7578,0.4453 -1.0781,1.2109 -0.3203,0.7657 -0.3203,2.1094 V -5 Z m 11.5166,-5.7031 q 0,-3.1719 1.7656,-4.7031 1.4688,-1.2657 3.5781,-1.2657 2.3594,0 3.8516,1.5469 1.4922,1.5469 1.4922,4.2656 0,2.2032 -0.6641,3.461 -0.664,1.2578 -1.9219,1.9609 -1.2578,0.7031 -2.7578,0.7031 -2.3906,0 -3.8672,-1.539 -1.4765,-1.5391 -1.4765,-4.4297 z m 1.9844,0 q 0,2.1875 0.9531,3.2812 0.9531,1.0938 2.4062,1.0938 1.4375,0 2.3985,-1.1016 0.9609,-1.1015 0.9609,-3.3359 0,-2.125 -0.9609,-3.211 -0.961,-1.0859 -2.3985,-1.0859 -1.4531,0 -2.4062,1.0859 -0.9531,1.086 -0.9531,3.2735 z m 10.2509,0 q 0,-3.1719 1.7657,-4.7031 1.4687,-1.2657 3.5781,-1.2657 2.3594,0 3.8515,1.5469 1.4922,1.5469 1.4922,4.2656 0,2.2032 -0.664,3.461 -0.6641,1.2578 -1.9219,1.9609 -1.2578,0.7031 -2.7578,0.7031 -2.3906,0 -3.8672,-1.539 -1.4766,-1.5391 -1.4766,-4.4297 z m 1.9844,0 q 0,2.1875 0.9531,3.2812 0.9532,1.0938 2.4063,1.0938 1.4375,0 2.3984,-1.1016 0.961,-1.1015 0.961,-3.3359 0,-2.125 -0.961,-3.211 -0.9609,-1.0859 -2.3984,-1.0859 -1.4531,0 -2.4063,1.0859 -0.9531,1.086 -0.9531,3.2735 z m 10.1885,2.2969 1.9219,-0.2969 q 0.1562,1.1406 0.8906,1.7578 0.7344,0.6172 2.0625,0.6172 1.3281,0 1.9765,-0.5469 0.6485,-0.5469 0.6485,-1.2656 0,-0.6563 -0.5781,-1.0313 -0.3907,-0.2656 -1.9688,-0.6562 -2.1406,-0.5469 -2.9609,-0.9375 -0.8203,-0.3906 -1.2422,-1.086 -0.4219,-0.6953 -0.4219,-1.5234 0,-0.7656 0.3516,-1.4141 0.3515,-0.6484 0.9453,-1.0859 0.4531,-0.3281 1.2344,-0.5625 0.7812,-0.2344 1.6718,-0.2344 1.3438,0 2.3594,0.3907 1.0156,0.3906 1.5,1.0468 0.4844,0.6563 0.6563,1.7656 l -1.8907,0.2657 q -0.125,-0.8907 -0.7421,-1.3828 -0.6172,-0.4922 -1.7422,-0.4922 -1.3438,0 -1.9063,0.4375 -0.5625,0.4375 -0.5625,1.0312 0,0.375 0.2344,0.6875 0.2344,0.3125 0.7344,0.5157 0.2968,0.0937 1.7031,0.4843 2.0625,0.5469 2.875,0.8985 0.8125,0.3515 1.2734,1.0156 0.461,0.664 0.461,1.6484 0,0.9688 -0.5625,1.8282 -0.5625,0.8593 -1.6328,1.3281 -1.0704,0.4687 -2.4141,0.4687 -2.2188,0 -3.3828,-0.9297 -1.1641,-0.9297 -1.4922,-2.7421 z m 11.7969,-10.125 V -20.75 h 1.9218 v 2.2188 z m 0,13.5312 v -11.4062 h 1.9218 V -5 Z m 4.872,0 v -11.4062 h 1.7344 v 1.625 q 1.2656,-1.8907 3.6406,-1.8907 1.0313,0 1.8907,0.375 0.8593,0.375 1.289,0.9766 0.4297,0.6015 0.6016,1.4297 0.1094,0.5312 0.1094,1.875 V -5 h -1.9375 v -6.9375 q 0,-1.1875 -0.2188,-1.7734 -0.2187,-0.586 -0.7969,-0.9297 -0.5781,-0.3438 -1.3593,-0.3438 -1.2344,0 -2.125,0.7813 -0.8907,0.7812 -0.8907,2.9687 V -5 Z m 11.876,0.9531 1.875,0.2657 q 0.125,0.875 0.6563,1.2812 0.7187,0.5312 1.9687,0.5312 1.3438,0 2.0781,-0.539 0.7344,-0.5391 0.9844,-1.5078 0.1563,-0.5938 0.1406,-2.4844 -1.2656,1.5 -3.1562,1.5 -2.3594,0 -3.6485,-1.6953 -1.289,-1.6953 -1.289,-4.0703 0,-1.6406 0.5937,-3.0156 0.5938,-1.375 1.7188,-2.1329 1.125,-0.7578 2.6406,-0.7578 2.0156,0 3.3281,1.6407 v -1.375 h 1.7813 v 9.8593 q 0,2.6719 -0.5469,3.7813 -0.5469,1.1094 -1.7187,1.75 -1.1719,0.6406 -2.8907,0.6406 -2.0468,0 -3.3047,-0.9141 -1.2578,-0.914 -1.2109,-2.7578 z m 1.6094,-6.8593 q 0,2.25 0.8906,3.2812 0.8906,1.0312 2.2344,1.0312 1.3281,0 2.2265,-1.0312 0.8985,-1.0312 0.8985,-3.2188 0,-2.0937 -0.9297,-3.1562 -0.9297,-1.0625 -2.2266,-1.0625 -1.2968,0 -2.1953,1.0469 -0.8984,1.0468 -0.8984,3.1094 z M 97.5879,-5 v -15.75 h 6.9844 q 2.0937,0 3.1953,0.4219 1.1015,0.4219 1.75,1.5 0.6484,1.0781 0.6484,2.375 0,1.6719 -1.0781,2.8203 -1.0781,1.1484 -3.3438,1.4609 0.8125,0.4063 1.25,0.7969 0.9063,0.8281 1.7344,2.0938 L 111.4629,-5 h -2.625 l -2.0781,-3.2812 q -0.9219,-1.4063 -1.5078,-2.1641 -0.586,-0.7578 -1.0547,-1.0547 -0.4688,-0.2969 -0.9532,-0.4219 Q 102.8848,-12 102.0879,-12 H 99.666 v 7 z m 2.0781,-8.7969 h 4.4844 q 1.4219,0 2.2266,-0.2969 0.8046,-0.2968 1.2265,-0.9453 0.4219,-0.6484 0.4219,-1.414 0,-1.1094 -0.8125,-1.836 -0.8125,-0.7265 -2.5625,-0.7265 H 99.666 Z m 21.3408,5.125 2,0.25 q -0.4843,1.75 -1.7578,2.7188 -1.2734,0.9687 -3.2734,0.9687 -2.5,0 -3.961,-1.5468 -1.4609,-1.5469 -1.4609,-4.3282 0,-2.875 1.4766,-4.4687 1.4765,-1.5938 3.8515,-1.5938 2.2813,0 3.7344,1.5625 1.4531,1.5625 1.4531,4.3906 0,0.1719 -0.0156,0.5157 h -8.5156 q 0.1094,1.875 1.0703,2.875 0.9609,1 2.3828,1 1.0625,0 1.8125,-0.5625 0.75,-0.5625 1.2031,-1.7813 z m -6.3593,-3.125 h 6.375 q -0.125,-1.4375 -0.7344,-2.1562 -0.9219,-1.125 -2.3906,-1.125 -1.3282,0 -2.2344,0.8906 -0.9063,0.8906 -1.0156,2.3906 z M 132.8359,-5 v -1.4375 q -1.0937,1.7031 -3.2031,1.7031 -1.3594,0 -2.5,-0.7578 -1.1406,-0.7578 -1.7734,-2.1016 -0.6328,-1.3437 -0.6328,-3.0937 0,-1.7187 0.5703,-3.1094 0.5703,-1.3906 1.7109,-2.1328 1.1406,-0.7422 2.5469,-0.7422 1.0312,0 1.8359,0.4375 0.8047,0.4375 1.3047,1.1406 V -20.75 h 1.9219 V -5 Z m -6.125,-5.6875 q 0,2.1875 0.9297,3.2734 0.9297,1.086 2.1797,1.086 1.2656,0 2.1563,-1.0391 0.8906,-1.039 0.8906,-3.164 0,-2.3438 -0.9063,-3.4376 -0.9062,-1.0937 -2.2187,-1.0937 -1.2969,0 -2.1641,1.0547 -0.8672,1.0547 -0.8672,3.3203 z"
       id="path47" />
  </g>
  <g
     transform="translate(231,29)"
     style="font-weight:bold;font-size:22px;color-interpolation:linearRGB;color-rendering:optimizeQuality;image-rendering:optimizeQuality;text-rendering:geometricPrecision"
     id="g49">
    <path
       style="stroke:none"
       d="m 0.7969,-5.125 3.0937,-0.2969 q 0.2813,1.5469 1.1328,2.2813 0.8516,0.7344 2.3047,0.7344 1.5313,0 2.3125,-0.6485 0.7813,-0.6484 0.7813,-1.5234 0,-0.5625 -0.3281,-0.9531 Q 9.7656,-5.9219 8.9531,-6.2031 8.3906,-6.4062 6.4062,-6.8906 3.8438,-7.5312 2.8125,-8.4531 1.3594,-9.75 1.3594,-11.625 q 0,-1.2031 0.6875,-2.25 0.6875,-1.0469 1.9687,-1.5938 1.2813,-0.5468 3.0938,-0.5468 2.9687,0 4.4687,1.2968 1.5,1.2969 1.5781,3.4688 l -3.1874,0.1406 q -0.2032,-1.2187 -0.875,-1.75 -0.6719,-0.5312 -2.0157,-0.5312 -1.3906,0 -2.1719,0.5781 -0.5,0.3594 -0.5,0.9687 0,0.5626 0.4688,0.9688 0.6094,0.5 2.9297,1.0469 2.3203,0.5469 3.4297,1.1328 1.1094,0.5859 1.7344,1.6015 0.625,1.0157 0.625,2.5 0,1.3594 -0.75,2.5391 -0.75,1.1797 -2.125,1.7578 -1.375,0.5781 -3.4219,0.5781 -2.9844,0 -4.586,-1.3828 Q 1.1094,-2.4844 0.7969,-5.125 Z M 23.7676,0 v -1.7031 q -0.625,0.9062 -1.6406,1.4375 -1.0157,0.5312 -2.1407,0.5312 -1.1562,0 -2.0703,-0.5078 -0.914,-0.5078 -1.3203,-1.4219 -0.4062,-0.914 -0.4062,-2.5234 v -7.2187 h 3.0156 v 5.2343 q 0,2.4063 0.164,2.9531 0.1641,0.5469 0.6094,0.8594 0.4453,0.3125 1.1172,0.3125 0.7813,0 1.3906,-0.4219 0.6094,-0.4218 0.836,-1.0468 0.2265,-0.625 0.2265,-3.0782 v -4.8124 h 3.0157 V 0 Z m 5.7978,0 v -15.75 h 3.0157 v 5.6719 q 1.3906,-1.5938 3.3125,-1.5938 2.0781,0 3.4453,1.5157 1.3672,1.5156 1.3672,4.3281 0,2.9219 -1.3907,4.5078 -1.3906,1.5859 -3.375,1.5859 -0.9843,0 -1.9375,-0.4922 -0.9531,-0.4922 -1.6406,-1.4453 V 0 Z m 3,-5.9531 q 0,1.7812 0.5469,2.625 0.7969,1.2031 2.0938,1.2031 1,0 1.7031,-0.8516 0.7031,-0.8515 0.7031,-2.6953 0,-1.9531 -0.7109,-2.8203 -0.711,-0.8672 -1.8203,-0.8672 -1.0782,0 -1.7969,0.8438 -0.7188,0.8437 -0.7188,2.5625 z m 10.501,-7 V -15.75 h 3.0156 v 2.7969 z m 3.0156,1.5469 v 11.0468 q 0,2.1875 -0.2812,3.086 -0.2813,0.8984 -1.0938,1.3984 -0.8125,0.5 -2.0781,0.5 -0.4375,0 -0.9609,-0.0781 -0.5235,-0.0781 -1.1328,-0.2344 l 0.5312,-2.5781 q 0.2188,0.0312 0.4063,0.0625 0.1875,0.0312 0.3437,0.0312 0.4688,0 0.7656,-0.2031 0.2969,-0.2031 0.3907,-0.4766 0.0937,-0.2734 0.0937,-1.6796 v -10.875 z m 9.7686,7.7812 3,0.5 q -0.5781,1.6562 -1.8281,2.5234 -1.25,0.8672 -3.125,0.8672 -2.9844,0 -4.4063,-1.9531 -1.125,-1.5625 -1.125,-3.9375 0,-2.8281 1.4766,-4.4375 1.4765,-1.6094 3.7578,-1.6094 2.5312,0 4.0078,1.6875 1.4766,1.6875 1.4141,5.1563 H 51.46 q 0.0312,1.3437 0.7265,2.0859 Q 52.8818,-2 53.9287,-2 q 0.7031,0 1.1875,-0.3828 0.4844,-0.3828 0.7344,-1.2422 z m 0.1719,-3.0625 Q 55.9912,-8 55.3428,-8.6797 q -0.6485,-0.6797 -1.5703,-0.6797 -0.9844,0 -1.625,0.7188 -0.6563,0.7187 -0.6407,1.9531 z M 71.4297,-8.0312 68.4453,-7.5 q -0.1406,-0.8906 -0.6719,-1.3438 -0.5312,-0.4531 -1.3906,-0.4531 -1.125,0 -1.7969,0.7813 -0.6718,0.7812 -0.6718,2.6094 0,2.0312 0.6797,2.8671 0.6796,0.836 1.8359,0.836 0.8594,0 1.4062,-0.4922 0.5469,-0.4922 0.7813,-1.6797 l 2.9531,0.5 q -0.4531,2.0469 -1.7656,3.0938 -1.3125,1.0468 -3.5156,1.0468 -2.5,0 -3.9922,-1.5859 -1.4922,-1.5859 -1.4922,-4.3672 0,-2.8281 1.5,-4.4063 1.5,-1.5781 4.0469,-1.5781 2.0781,0 3.3046,0.8985 1.2266,0.8984 1.7735,2.7422 z m 7.5166,-3.375 V -9 h -2.0625 v 4.5938 q 0,1.3906 0.0547,1.625 0.0547,0.2343 0.2656,0.3828 0.2109,0.1484 0.5234,0.1484 0.4063,0 1.2032,-0.2812 l 0.2656,2.3437 q -1.0625,0.4531 -2.3906,0.4531 -0.8125,0 -1.4688,-0.2812 -0.6562,-0.2813 -0.9609,-0.711 -0.3047,-0.4296 -0.4297,-1.1796 -0.0938,-0.5157 -0.0938,-2.125 V -9 h -1.3906 v -2.4062 h 1.3906 v -2.2657 l 3.0313,-1.7656 v 4.0313 z m 8.2353,-4.3438 h 6.2969 q 1.875,0 2.7891,0.1562 0.914,0.1563 1.6406,0.6485 0.7266,0.4922 1.2109,1.3125 0.4844,0.8203 0.4844,1.8516 0,1.1093 -0.5937,2.0312 -0.5938,0.9219 -1.625,1.375 1.4375,0.4219 2.2109,1.4297 0.7734,1.0078 0.7734,2.3828 0,1.0781 -0.5,2.0859 -0.5,1.0078 -1.3593,1.6172 -0.8594,0.6094 -2.125,0.75 Q 95.5879,-0.0156 92.541,0 h -5.3594 z m 3.1875,2.625 v 3.6406 h 2.0782 q 1.8593,0 2.3125,-0.0625 0.8125,-0.0937 1.2812,-0.5625 0.4688,-0.4687 0.4688,-1.2187 0,-0.7344 -0.4063,-1.1953 -0.4062,-0.461 -1.2031,-0.5547 -0.4688,-0.0469 -2.7031,-0.0469 z m 0,6.2656 v 4.2032 h 2.9375 q 1.7188,0 2.1875,-0.0938 0.7032,-0.125 1.1485,-0.625 0.4453,-0.5 0.4453,-1.3438 0,-0.7031 -0.3438,-1.1953 -0.3437,-0.4921 -0.9921,-0.7187 -0.6485,-0.2266 -2.8204,-0.2266 z M 103.1006,0 v -15.75 h 3.0937 l 6.4375,10.5156 V -15.75 h 2.9532 V 0 h -3.1875 l -6.3438,-10.2656 V 0 Z"
       id="path48" />
  </g>
  <g
     transform="translate(354,29)"
     style="font-weight:bold;font-size:22px;color-interpolation:linearRGB;color-rendering:optimizeQuality;image-rendering:optimizeQuality;text-rendering:geometricPrecision"
     id="g50">
    <path
       style="stroke:none"
       d="m 8.9219,-5.7969 v -2.6406 h 6.8593 v 6.2656 q -1,0.9688 -2.8984,1.7031 -1.8984,0.7344 -3.8359,0.7344 -2.4688,0 -4.3047,-1.039 -1.836,-1.0391 -2.7656,-2.961 -0.9297,-1.9218 -0.9297,-4.1875 0,-2.4687 1.0312,-4.3828 1.0313,-1.9141 3.0313,-2.9297 1.5156,-0.7812 3.7656,-0.7812 2.9375,0 4.5859,1.2265 1.6485,1.2266 2.1172,3.3985 l -3.1562,0.5937 q -0.3438,-1.1562 -1.2578,-1.8281 -0.9141,-0.6719 -2.2891,-0.6719 -2.0781,0 -3.3125,1.3203 -1.2344,1.3204 -1.2344,3.9141 0,2.8125 1.25,4.2109 1.25,1.3985 3.2657,1.3985 1,0 2,-0.3907 1,-0.3906 1.7187,-0.9531 v -2 z m 16.3779,2.1719 3,0.5 q -0.5781,1.6562 -1.8281,2.5234 -1.25,0.8672 -3.125,0.8672 -2.9844,0 -4.4063,-1.9531 -1.125,-1.5625 -1.125,-3.9375 0,-2.8281 1.4766,-4.4375 1.4766,-1.6094 3.7578,-1.6094 2.5313,0 4.0078,1.6875 1.4766,1.6875 1.4141,5.1563 h -7.5625 q 0.0312,1.3437 0.7265,2.0859 Q 22.3311,-2 23.3779,-2 q 0.7032,0 1.1875,-0.3828 0.4844,-0.3828 0.7344,-1.2422 z m 0.1719,-3.0625 Q 25.4404,-8 24.792,-8.6797 q -0.6484,-0.6797 -1.5703,-0.6797 -0.9844,0 -1.625,0.7188 -0.6563,0.7187 -0.6406,1.9531 z M 41.3008,0 h -3.0156 v -5.8281 q 0,-1.8438 -0.1954,-2.3828 -0.1953,-0.5391 -0.625,-0.8438 -0.4296,-0.3047 -1.0546,-0.3047 -0.7813,0 -1.4063,0.4297 -0.625,0.4297 -0.8516,1.1406 -0.2265,0.711 -0.2265,2.6172 V 0 h -3.0156 v -11.4062 h 2.7968 v 1.6718 q 1.5,-1.9375 3.7657,-1.9375 1,0 1.8281,0.3594 0.8281,0.3594 1.25,0.9219 0.4219,0.5625 0.5859,1.2734 0.1641,0.711 0.1641,2.0234 z m 9.6728,-3.625 3,0.5 q -0.5781,1.6562 -1.8281,2.5234 -1.25,0.8672 -3.125,0.8672 -2.9844,0 -4.4062,-1.9531 -1.125,-1.5625 -1.125,-3.9375 0,-2.8281 1.4765,-4.4375 1.4766,-1.6094 3.7578,-1.6094 2.5313,0 4.0078,1.6875 1.4766,1.6875 1.4141,5.1563 H 46.583 q 0.0313,1.3437 0.7266,2.0859 Q 48.0049,-2 49.0518,-2 q 0.7031,0 1.1875,-0.3828 0.4843,-0.3828 0.7343,-1.2422 z m 0.1719,-3.0625 Q 51.1143,-8 50.4658,-8.6797 q -0.6484,-0.6797 -1.5703,-0.6797 -0.9844,0 -1.625,0.7188 -0.6562,0.7187 -0.6406,1.9531 z M 59.4902,0 h -3.0156 v -11.4062 h 2.7969 v 1.625 q 0.7187,-1.1563 1.2969,-1.5235 0.5781,-0.3672 1.3125,-0.3672 1.0312,0 1.9843,0.5781 l -0.9375,2.625 q -0.7656,-0.4843 -1.4218,-0.4843 -0.625,0 -1.0704,0.3437 -0.4453,0.3438 -0.6953,1.2578 -0.25,0.9141 -0.25,3.8204 z m 7.9209,-7.9219 -2.7343,-0.5 q 0.4687,-1.6562 1.5937,-2.4531 1.125,-0.7969 3.3438,-0.7969 2.0312,0 3.0156,0.4844 0.9844,0.4844 1.3906,1.2187 0.4063,0.7344 0.4063,2.7032 L 74.3955,-3.75 q 0,1.5 0.1406,2.2188 Q 74.6768,-0.8125 75.083,0 h -2.9844 q -0.125,-0.2969 -0.2968,-0.8906 -0.0782,-0.2656 -0.1094,-0.3594 -0.7656,0.75 -1.6485,1.1328 -0.8828,0.3828 -1.8828,0.3828 -1.7656,0 -2.7812,-0.9609 -1.0156,-0.9609 -1.0156,-2.4141 0,-0.9687 0.4609,-1.7265 0.4609,-0.7579 1.2969,-1.1641 0.8359,-0.4062 2.3984,-0.7031 2.125,-0.3907 2.9375,-0.7344 V -7.75 q 0,-0.8594 -0.4297,-1.2344 -0.4297,-0.375 -1.6172,-0.375 -0.8125,0 -1.2656,0.3203 -0.4531,0.3203 -0.7344,1.1172 z m 4.0469,2.4375 q -0.5781,0.2032 -1.8359,0.4688 -1.2578,0.2656 -1.6485,0.5312 -0.5937,0.4063 -0.5937,1.0625 0,0.625 0.4765,1.086 0.4766,0.4609 1.211,0.4609 0.8125,0 1.5469,-0.5312 0.5468,-0.4063 0.7187,-1 0.125,-0.3907 0.125,-1.4688 z M 77.3965,0 v -15.75 h 3.0156 V 0 Z m 6.1123,-12.9531 V -15.75 h 3.0156 v 2.7969 z m 0,12.9531 v -11.4062 h 3.0156 V 0 Z m 4.8935,0 v -2.3594 l 4.2813,-4.9062 q 1.0469,-1.2032 1.5625,-1.7032 -0.5313,0.0313 -1.3906,0.0469 l -4.0313,0.0157 v -2.5 h 9.4375 v 2.1406 l -4.3594,5.0156 -1.5468,1.6719 q 1.2656,-0.0781 1.5625,-0.0781 h 4.6718 V 0 Z m 18.8282,-3.625 3,0.5 q -0.5782,1.6562 -1.8282,2.5234 -1.25,0.8672 -3.125,0.8672 -2.9843,0 -4.4062,-1.9531 -1.125,-1.5625 -1.125,-3.9375 0,-2.8281 1.4766,-4.4375 1.4765,-1.6094 3.7578,-1.6094 2.5312,0 4.0078,1.6875 1.4765,1.6875 1.414,5.1563 h -7.5625 q 0.0313,1.3437 0.7266,2.0859 0.6953,0.7422 1.7422,0.7422 0.7031,0 1.1875,-0.3828 0.4844,-0.3828 0.7344,-1.2422 z m 0.1718,-3.0625 Q 107.3711,-8 106.7227,-8.6797 q -0.6485,-0.6797 -1.5704,-0.6797 -0.9843,0 -1.625,0.7188 -0.6562,0.7187 -0.6406,1.9531 z M 123.3252,0 h -2.8125 v -1.6719 q -0.6875,0.9688 -1.6406,1.4531 -0.9532,0.4844 -1.9219,0.4844 -1.9688,0 -3.3672,-1.5859 -1.3984,-1.5859 -1.3984,-4.4297 0,-2.8906 1.3593,-4.4062 1.3594,-1.5157 3.4532,-1.5157 1.9062,0 3.3125,1.5938 V -15.75 h 3.0156 z m -8.0625,-5.9531 q 0,1.8281 0.5,2.6406 0.7344,1.1875 2.0469,1.1875 1.0468,0 1.7734,-0.8906 0.7266,-0.8906 0.7266,-2.6406 0,-1.9688 -0.711,-2.836 -0.7109,-0.8672 -1.8047,-0.8672 -1.0781,0 -1.8046,0.8516 -0.7266,0.8516 -0.7266,2.5547 z M 132.5166,0 v -15.625 h 3.1719 v 12.9688 h 7.9062 V 0 Z m 12.626,-5.8594 q 0,-1.5156 0.7422,-2.9218 0.7422,-1.4063 2.1015,-2.1485 1.3594,-0.7422 3.0313,-0.7422 2.5937,0 4.25,1.6875 1.6562,1.6875 1.6562,4.25 0,2.5938 -1.6718,4.2969 -1.6719,1.7031 -4.2032,1.7031 -1.5781,0 -3,-0.7109 -1.4218,-0.7109 -2.164,-2.0859 -0.7422,-1.375 -0.7422,-3.3282 z m 3.0937,0.1563 q 0,1.7031 0.8125,2.6015 0.8125,0.8985 1.9844,0.8985 1.1875,0 1.9844,-0.8985 0.7969,-0.8984 0.7969,-2.6172 0,-1.6874 -0.7969,-2.5859 -0.7969,-0.8984 -1.9844,-0.8984 -1.1719,0 -1.9844,0.8984 -0.8125,0.8985 -0.8125,2.6016 z m 10.7666,6.4531 3.4532,0.4219 q 0.0781,0.5937 0.3906,0.8281 0.4375,0.3281 1.3594,0.3281 1.1875,0 1.7656,-0.3593 0.4062,-0.2344 0.6094,-0.7657 0.1406,-0.375 0.1406,-1.3906 V -1.8438 Q 165.3623,0 163.2998,0 q -2.2969,0 -3.6406,-1.9375 -1.0469,-1.5469 -1.0469,-3.8281 0,-2.875 1.375,-4.3906 1.375,-1.5157 3.4375,-1.5157 2.1094,0 3.4844,1.8594 v -1.5937 h 2.8281 v 10.2343 q 0,2.0157 -0.3359,3.0157 -0.336,1 -0.9375,1.5703 -0.6016,0.5703 -1.6016,0.8906 -1,0.3203 -2.5312,0.3203 -2.9063,0 -4.1172,-0.9922 -1.211,-0.9922 -1.211,-2.5078 0,-0.1562 0,-0.375 z m 2.7032,-6.6875 q 0,1.8125 0.7031,2.6563 0.7031,0.8437 1.7344,0.8437 1.1093,0 1.8671,-0.8672 0.7579,-0.8672 0.7579,-2.5547 0,-1.7812 -0.7266,-2.6406 -0.7266,-0.8594 -1.8516,-0.8594 -1.0781,0 -1.7812,0.8438 -0.7031,0.8437 -0.7031,2.5781 z m 11.0166,-7.0156 V -15.75 h 3.0156 v 2.7969 z m 0,12.9531 v -11.4062 h 3.0156 V 0 Z m 5.0498,-3.25 3.0312,-0.4688 q 0.1875,0.875 0.7813,1.336 0.5937,0.4609 1.6562,0.4609 1.1719,0 1.7656,-0.4375 0.3907,-0.2968 0.3907,-0.7968 0,-0.3438 -0.2188,-0.5782 -0.2187,-0.2031 -1,-0.3906 -3.6562,-0.8125 -4.6406,-1.4688 -1.3438,-0.9218 -1.3438,-2.5781 0,-1.4687 1.1719,-2.4843 1.1719,-1.0157 3.625,-1.0157 2.3438,0 3.4844,0.7657 1.1406,0.7656 1.5625,2.2656 l -2.8438,0.5156 Q 185.0068,-8.7812 184.499,-9.1406 183.9912,-9.5 183.0537,-9.5 q -1.2031,0 -1.7187,0.3438 -0.3438,0.2343 -0.3438,0.6093 0,0.3125 0.3125,0.5469 0.4063,0.2969 2.8125,0.8438 2.4063,0.5468 3.375,1.3437 0.9375,0.8125 0.9375,2.25 0,1.5625 -1.3125,2.6953 -1.3125,1.1328 -3.875,1.1328 -2.3281,0 -3.6875,-0.9531 -1.3594,-0.9531 -1.7812,-2.5625 z m 18.5322,-8.1562 V -9 h -2.0625 v 4.5938 q 0,1.3906 0.0547,1.625 0.0547,0.2343 0.2656,0.3828 0.2109,0.1484 0.5234,0.1484 0.4063,0 1.2032,-0.2812 l 0.2656,2.3437 q -1.0625,0.4531 -2.3906,0.4531 -0.8125,0 -1.4688,-0.2812 -0.6562,-0.2813 -0.9609,-0.711 -0.3047,-0.4296 -0.4297,-1.1796 -0.0938,-0.5157 -0.0938,-2.125 V -9 h -1.3906 v -2.4062 h 1.3906 v -2.2657 l 3.0313,-1.7656 v 4.0313 z m 2.0918,-1.5469 V -15.75 h 3.0156 v 2.7969 z m 0,12.9531 v -11.4062 h 3.0156 V 0 Z m 16.0654,-8.0312 -2.9844,0.5312 q -0.1406,-0.8906 -0.6718,-1.3438 -0.5313,-0.4531 -1.3907,-0.4531 -1.125,0 -1.7968,0.7813 -0.6719,0.7812 -0.6719,2.6094 0,2.0312 0.6797,2.8671 0.6797,0.836 1.8359,0.836 0.8594,0 1.4063,-0.4922 0.5468,-0.4922 0.7812,-1.6797 l 2.9531,0.5 q -0.4531,2.0469 -1.7656,3.0938 -1.3125,1.0468 -3.5156,1.0468 -2.5,0 -3.9922,-1.5859 -1.4922,-1.5859 -1.4922,-4.3672 0,-2.8281 1.5,-4.4063 1.5,-1.5781 4.0469,-1.5781 2.0781,0 3.3047,0.8985 1.2265,0.8984 1.7734,2.7422 z M 222.8408,0 v -15.75 h 4.75 l 2.8594,10.75 2.8281,-10.75 h 4.7656 V 0 h -2.9531 V -12.3906 L 231.9658,0 h -3.0625 l -3.1094,-12.3906 V 0 Z m 17.6387,-5.8594 q 0,-1.5156 0.7422,-2.9218 0.7422,-1.4063 2.1015,-2.1485 1.3594,-0.7422 3.0313,-0.7422 2.5937,0 4.25,1.6875 1.6562,1.6875 1.6562,4.25 0,2.5938 -1.6718,4.2969 -1.6719,1.7031 -4.2032,1.7031 -1.5781,0 -3,-0.7109 -1.4218,-0.7109 -2.164,-2.0859 -0.7422,-1.375 -0.7422,-3.3282 z m 3.0937,0.1563 q 0,1.7031 0.8125,2.6015 0.8125,0.8985 1.9844,0.8985 1.1875,0 1.9844,-0.8985 0.7969,-0.8984 0.7969,-2.6172 0,-1.6874 -0.7969,-2.5859 -0.7969,-0.8984 -1.9844,-0.8984 -1.1719,0 -1.9844,0.8984 -0.8125,0.8985 -0.8125,2.6016 z M 265.0898,0 h -2.8125 v -1.6719 q -0.6875,0.9688 -1.6406,1.4531 -0.9531,0.4844 -1.9219,0.4844 -1.9687,0 -3.3671,-1.5859 -1.3985,-1.5859 -1.3985,-4.4297 0,-2.8906 1.3594,-4.4062 1.3594,-1.5157 3.4531,-1.5157 1.9063,0 3.3125,1.5938 V -15.75 h 3.0156 z m -8.0625,-5.9531 q 0,1.8281 0.5,2.6406 0.7344,1.1875 2.0469,1.1875 1.0469,0 1.7735,-0.8906 0.7265,-0.8906 0.7265,-2.6406 0,-1.9688 -0.7109,-2.836 -0.711,-0.8672 -1.8047,-0.8672 -1.0781,0 -1.8047,0.8516 -0.7266,0.8516 -0.7266,2.5547 z m 17.6416,2.3281 3,0.5 q -0.5781,1.6562 -1.8281,2.5234 -1.25,0.8672 -3.125,0.8672 -2.9844,0 -4.4062,-1.9531 -1.125,-1.5625 -1.125,-3.9375 0,-2.8281 1.4765,-4.4375 1.4766,-1.6094 3.7578,-1.6094 2.5313,0 4.0079,1.6875 1.4765,1.6875 1.414,5.1563 h -7.5625 q 0.0313,1.3437 0.7266,2.0859 0.6953,0.7422 1.7422,0.7422 0.7031,0 1.1875,-0.3828 0.4843,-0.3828 0.7343,-1.2422 z m 0.1719,-3.0625 Q 274.8096,-8 274.1611,-8.6797 q -0.6484,-0.6797 -1.5703,-0.6797 -0.9844,0 -1.625,0.7188 -0.6562,0.7187 -0.6406,1.9531 z M 280.2949,0 v -15.75 h 3.0156 V 0 Z"
       id="path49" />
  </g>
  <g
     transform="translate(382.42,47)"
     style="color-interpolation:linearRGB;fill:#0000ff;stroke:#0000ff;color-rendering:optimizeQuality;image-rendering:optimizeQuality;text-rendering:geometricPrecision"
     id="g53">
    <circle
       r="5.8667002"
       style="stroke:none"
       cx="0"
       cy="0"
       id="circle52" />
  </g>
  <g
     transform="translate(382.42,47)"
     style="color-interpolation:linearRGB;fill:#0000ff;stroke:#0000ff;stroke-linejoin:round;color-rendering:optimizeQuality;image-rendering:optimizeQuality;text-rendering:geometricPrecision"
     id="g54">
    <path
       style="stroke:none"
       d="m 0,-5.3667 c 2.9639,0 5.3667,2.4028 5.3667,5.3667 V 0 C 5.3667,2.9639 2.9639,5.3667 0,5.3667 -2.9639,5.3667 -5.3667,2.9639 -5.3667,0 c 0,-2.9639 2.4028,-5.3667 5.3667,-5.3667 z m 0,-1 c -3.5162,0 -6.3667,2.8505 -6.3667,6.3667 0,3.5162 2.8505,6.3667 6.3667,6.3667 C 3.5162,6.3667 6.3667,3.5162 6.3667,0 V 0 C 6.3667,-3.5162 3.5162,-6.3667 0,-6.3667 Z"
       id="path53" />
  </g>
  <g
     transform="translate(408.46,230.5714)"
     style="color-interpolation:linearRGB;fill:#0000ff;stroke:#0000ff;color-rendering:optimizeQuality;image-rendering:optimizeQuality;text-rendering:geometricPrecision"
     id="g55">
    <circle
       r="5.8667002"
       style="stroke:none"
       cx="0"
       cy="0"
       id="circle54" />
  </g>
  <g
     transform="translate(460.54,132.6667)"
     style="color-interpolation:linearRGB;fill:#0000ff;stroke:#0000ff;color-rendering:optimizeQuality;image-rendering:optimizeQuality;text-rendering:geometricPrecision"
     id="g57">
    <circle
       r="5.8667002"
       style="stroke:none"
       cx="0"
       cy="0"
       id="circle56" />
  </g>
  <g
     transform="translate(460.54,132.6667)"
     style="color-interpolation:linearRGB;fill:#0000ff;stroke:#0000ff;stroke-linejoin:round;color-rendering:optimizeQuality;image-rendering:optimizeQuality;text-rendering:geometricPrecision"
     id="g58">
    <path
       style="stroke:none"
       d="m 0,-5.3667 c 2.9639,0 5.3667,2.4028 5.3667,5.3667 V 0 C 5.3667,2.9639 2.9639,5.3667 0,5.3667 -2.9639,5.3667 -5.3667,2.9639 -5.3667,0 c 0,-2.9639 2.4028,-5.3667 5.3667,-5.3667 z m 0,-1 c -3.5162,0 -6.3667,2.8505 -6.3667,6.3667 0,3.5162 2.8505,6.3667 6.3667,6.3667 C 3.5162,6.3667 6.3667,3.5162 6.3667,0 V 0 C 6.3667,-3.5162 3.5162,-6.3667 0,-6.3667 Z"
       id="path57" />
  </g>
  <g
     transform="translate(486.58,47)"
     style="color-interpolation:linearRGB;fill:#0000ff;stroke:#0000ff;color-rendering:optimizeQuality;image-rendering:optimizeQuality;text-rendering:geometricPrecision"
     id="g59">
    <circle
       r="5.8667002"
       style="stroke:none"
       cx="0"
       cy="0"
       id="circle58" />
  </g>
  <g
     transform="translate(486.58,47)"
     style="color-interpolation:linearRGB;fill:#0000ff;stroke:#0000ff;stroke-linejoin:round;color-rendering:optimizeQuality;image-rendering:optimizeQuality;text-rendering:geometricPrecision"
     id="g60">
    <path
       style="stroke:none"
       d="m 0,-5.3667 c 2.9639,0 5.3667,2.4028 5.3667,5.3667 V 0 C 5.3667,2.9639 2.9639,5.3667 0,5.3667 -2.9639,5.3667 -5.3667,2.9639 -5.3667,0 c 0,-2.9639 2.4028,-5.3667 5.3667,-5.3667 z m 0,-1 c -3.5162,0 -6.3667,2.8505 -6.3667,6.3667 0,3.5162 2.8505,6.3667 6.3667,6.3667 C 3.5162,6.3667 6.3667,3.5162 6.3667,0 V 0 C 6.3667,-3.5162 3.5162,-6.3667 0,-6.3667 Z"
       id="path59" />
  </g>
  <g
     transform="translate(538.66,47)"
     style="color-interpolation:linearRGB;fill:#0000ff;stroke:#0000ff;color-rendering:optimizeQuality;image-rendering:optimizeQuality;text-rendering:geometricPrecision"
     id="g61">
    <circle
       r="5.8667002"
       style="stroke:none"
       cx="0"
       cy="0"
       id="circle60" />
  </g>
  <g
     transform="translate(239.2,561)"
     style="color-interpolation:linearRGB;fill:#00ff00;stroke:#00ff00;color-rendering:optimizeQuality;image-rendering:optimizeQuality;text-rendering:geometricPrecision"
     id="g63">
    <circle
       r="5.8667002"
       style="stroke:none"
       cx="0"
       cy="0"
       id="circle62" />
  </g>
  <g
     transform="translate(239.2,561)"
     style="color-interpolation:linearRGB;fill:#00ff00;stroke:#00ff00;stroke-width:2;stroke-linecap:butt;stroke-linejoin:round;color-rendering:optimizeQuality;image-rendering:optimizeQuality;text-rendering:geometricPrecision"
     id="g64">
    <path
       style="stroke:none"
       d="m 0,-5.3667 c 2.9639,0 5.3667,2.4028 5.3667,5.3667 V 0 C 5.3667,2.9639 2.9639,5.3667 0,5.3667 -2.9639,5.3667 -5.3667,2.9639 -5.3667,0 c 0,-2.9639 2.4028,-5.3667 5.3667,-5.3667 z m 0,-1 c -3.5162,0 -6.3667,2.8505 -6.3667,6.3667 0,3.5162 2.8505,6.3667 6.3667,6.3667 C 3.5162,6.3667 6.3667,3.5162 6.3667,0 V 0 C 6.3667,-3.5162 3.5162,-6.3667 0,-6.3667 Z"
       id="path63" />
  </g>
  <g
     transform="translate(486.58,47)"
     style="color-interpolation:linearRGB;fill:#00ff00;stroke:#00ff00;color-rendering:optimizeQuality;image-rendering:optimizeQuality;text-rendering:geometricPrecision"
     id="g75">
    <circle
       r="5.8667002"
       style="stroke:none"
       cx="0"
       cy="0"
       id="circle74" />
  </g>
  <g
     transform="translate(486.58,47)"
     style="color-interpolation:linearRGB;fill:#00ff00;stroke:#00ff00;stroke-width:2;stroke-linecap:butt;stroke-linejoin:round;color-rendering:optimizeQuality;image-rendering:optimizeQuality;text-rendering:geometricPrecision"
     id="g76">
    <path
       style="stroke:none"
       d="m 0,-5.3667 c 2.9639,0 5.3667,2.4028 5.3667,5.3667 V 0 C 5.3667,2.9639 2.9639,5.3667 0,5.3667 -2.9639,5.3667 -5.3667,2.9639 -5.3667,0 c 0,-2.9639 2.4028,-5.3667 5.3667,-5.3667 z m 0,-1 c -3.5162,0 -6.3667,2.8505 -6.3667,6.3667 0,3.5162 2.8505,6.3667 6.3667,6.3667 C 3.5162,6.3667 6.3667,3.5162 6.3667,0 V 0 C 6.3667,-3.5162 3.5162,-6.3667 0,-6.3667 Z"
       id="path75" />
  </g>
  <g
     transform="translate(538.66,47)"
     style="color-interpolation:linearRGB;fill:#00ff00;stroke:#00ff00;color-rendering:optimizeQuality;image-rendering:optimizeQuality;text-rendering:geometricPrecision"
     id="g79">
    <circle
       r="5.8667002"
       style="stroke:none"
       cx="0"
       cy="0"
       id="circle78" />
  </g>
  <g
     transform="translate(538.66,47)"
     style="color-interpolation:linearRGB;fill:#00ff00;stroke:#00ff00;stroke-width:2;stroke-linecap:butt;stroke-linejoin:round;color-rendering:optimizeQuality;image-rendering:optimizeQuality;text-rendering:geometricPrecision"
     id="g80">
    <path
       style="stroke:none"
       d="m 0,-5.3667 c 2.9639,0 5.3667,2.4028 5.3667,5.3667 V 0 C 5.3667,2.9639 2.9639,5.3667 0,5.3667 -2.9639,5.3667 -5.3667,2.9639 -5.3667,0 c 0,-2.9639 2.4028,-5.3667 5.3667,-5.3667 z m 0,-1 c -3.5162,0 -6.3667,2.8505 -6.3667,6.3667 0,3.5162 2.8505,6.3667 6.3667,6.3667 C 3.5162,6.3667 6.3667,3.5162 6.3667,0 V 0 C 6.3667,-3.5162 3.5162,-6.3667 0,-6.3667 Z"
       id="path79" />
  </g>
  <g
     transform="translate(239.2,561)"
     style="color-interpolation:linearRGB;fill:#ff0000;stroke:#ff0000;color-rendering:optimizeQuality;image-rendering:optimizeQuality;text-rendering:geometricPrecision"
     id="g83">
    <circle
       r="5.8667002"
       style="stroke:none"
       cx="0"
       cy="0"
       id="circle82" />
  </g>
  <g
     transform="translate(239.2,561)"
     style="color-interpolation:linearRGB;fill:#ff0000;stroke:#ff0000;stroke-width:2;stroke-linecap:butt;stroke-linejoin:round;color-rendering:optimizeQuality;image-rendering:optimizeQuality;text-rendering:geometricPrecision"
     id="g84">
    <path
       style="stroke:none"
       d="m 0,-5.3667 c 2.9639,0 5.3667,2.4028 5.3667,5.3667 V 0 C 5.3667,2.9639 2.9639,5.3667 0,5.3667 -2.9639,5.3667 -5.3667,2.9639 -5.3667,0 c 0,-2.9639 2.4028,-5.3667 5.3667,-5.3667 z m 0,-1 c -3.5162,0 -6.3667,2.8505 -6.3667,6.3667 0,3.5162 2.8505,6.3667 6.3667,6.3667 C 3.5162,6.3667 6.3667,3.5162 6.3667,0 V 0 C 6.3667,-3.5162 3.5162,-6.3667 0,-6.3667 Z"
       id="path83" />
  </g>
  <g
     transform="translate(330.34,432.5)"
     style="color-interpolation:linearRGB;fill:#ff0000;stroke:#ff0000;color-rendering:optimizeQuality;image-rendering:optimizeQuality;text-rendering:geometricPrecision"
     id="g85">
    <circle
       r="5.8667002"
       style="stroke:none"
       cx="0"
       cy="0"
       id="circle84" />
  </g>
  <g
     transform="translate(330.34,432.5)"
     style="color-interpolation:linearRGB;fill:#ff0000;stroke:#ff0000;stroke-width:2;stroke-linecap:butt;stroke-linejoin:round;color-rendering:optimizeQuality;image-rendering:optimizeQuality;text-rendering:geometricPrecision"
     id="g86">
    <path
       style="stroke:none"
       d="m 0,-5.3667 c 2.9639,0 5.3667,2.4028 5.3667,5.3667 V 0 C 5.3667,2.9639 2.9639,5.3667 0,5.3667 -2.9639,5.3667 -5.3667,2.9639 -5.3667,0 c 0,-2.9639 2.4028,-5.3667 5.3667,-5.3667 z m 0,-1 c -3.5162,0 -6.3667,2.8505 -6.3667,6.3667 0,3.5162 2.8505,6.3667 6.3667,6.3667 C 3.5162,6.3667 6.3667,3.5162 6.3667,0 V 0 C 6.3667,-3.5162 3.5162,-6.3667 0,-6.3667 Z"
       id="path85" />
  </g>
  <g
     transform="translate(382.42,252.6)"
     style="color-interpolation:linearRGB;fill:#ff0000;stroke:#ff0000;color-rendering:optimizeQuality;image-rendering:optimizeQuality;text-rendering:geometricPrecision"
     id="g87">
    <circle
       r="5.8667002"
       style="stroke:none"
       cx="0"
       cy="0"
       id="circle86" />
  </g>
  <g
     transform="translate(382.42,252.6)"
     style="color-interpolation:linearRGB;fill:#ff0000;stroke:#ff0000;stroke-width:2;stroke-linecap:butt;stroke-linejoin:round;color-rendering:optimizeQuality;image-rendering:optimizeQuality;text-rendering:geometricPrecision"
     id="g88">
    <path
       style="stroke:none"
       d="m 0,-5.3667 c 2.9639,0 5.3667,2.4028 5.3667,5.3667 V 0 C 5.3667,2.9639 2.9639,5.3667 0,5.3667 -2.9639,5.3667 -5.3667,2.9639 -5.3667,0 c 0,-2.9639 2.4028,-5.3667 5.3667,-5.3667 z m 0,-1 c -3.5162,0 -6.3667,2.8505 -6.3667,6.3667 0,3.5162 2.8505,6.3667 6.3667,6.3667 C 3.5162,6.3667 6.3667,3.5162 6.3667,0 V 0 C 6.3667,-3.5162 3.5162,-6.3667 0,-6.3667 Z"
       id="path87" />
  </g>
  <g
     transform="translate(408.46,355.4)"
     style="color-interpolation:linearRGB;fill:#ff0000;stroke:#ff0000;color-rendering:optimizeQuality;image-rendering:optimizeQuality;text-rendering:geometricPrecision"
     id="g89">
    <circle
       r="5.8667002"
       style="stroke:none"
       cx="0"
       cy="0"
       id="circle88" />
  </g>
  <g
     transform="translate(408.46,355.4)"
     style="color-interpolation:linearRGB;fill:#ff0000;stroke:#ff0000;stroke-width:2;stroke-linecap:butt;stroke-linejoin:round;color-rendering:optimizeQuality;image-rendering:optimizeQuality;text-rendering:geometricPrecision"
     id="g90">
    <path
       style="stroke:none"
       d="m 0,-5.3667 c 2.9639,0 5.3667,2.4028 5.3667,5.3667 V 0 C 5.3667,2.9639 2.9639,5.3667 0,5.3667 -2.9639,5.3667 -5.3667,2.9639 -5.3667,0 c 0,-2.9639 2.4028,-5.3667 5.3667,-5.3667 z m 0,-1 c -3.5162,0 -6.3667,2.8505 -6.3667,6.3667 0,3.5162 2.8505,6.3667 6.3667,6.3667 C 3.5162,6.3667 6.3667,3.5162 6.3667,0 V 0 C 6.3667,-3.5162 3.5162,-6.3667 0,-6.3667 Z"
       id="path89" />
  </g>
  <g
     transform="translate(460.54,149.8)"
     style="color-interpolation:linearRGB;fill:#ff0000;stroke:#ff0000;color-rendering:optimizeQuality;image-rendering:optimizeQuality;text-rendering:geometricPrecision"
     id="g91">
    <circle
       r="5.8667002"
       style="stroke:none"
       cx="0"
       cy="0"
       id="circle90" />
  </g>
  <g
     transform="translate(460.54,149.8)"
     style="color-interpolation:linearRGB;fill:#ff0000;stroke:#ff0000;stroke-width:2;stroke-linecap:butt;stroke-linejoin:round;color-rendering:optimizeQuality;image-rendering:optimizeQuality;text-rendering:geometricPrecision"
     id="g92">
    <path
       style="stroke:none"
       d="m 0,-5.3667 c 2.9639,0 5.3667,2.4028 5.3667,5.3667 V 0 C 5.3667,2.9639 2.9639,5.3667 0,5.3667 -2.9639,5.3667 -5.3667,2.9639 -5.3667,0 c 0,-2.9639 2.4028,-5.3667 5.3667,-5.3667 z m 0,-1 c -3.5162,0 -6.3667,2.8505 -6.3667,6.3667 0,3.5162 2.8505,6.3667 6.3667,6.3667 C 3.5162,6.3667 6.3667,3.5162 6.3667,0 V 0 C 6.3667,-3.5162 3.5162,-6.3667 0,-6.3667 Z"
       id="path91" />
  </g>
  <g
     transform="translate(486.58,47)"
     style="color-interpolation:linearRGB;fill:#ff0000;stroke:#ff0000;color-rendering:optimizeQuality;image-rendering:optimizeQuality;text-rendering:geometricPrecision"
     id="g93">
    <circle
       r="5.8667002"
       style="stroke:none"
       cx="0"
       cy="0"
       id="circle92" />
  </g>
  <g
     transform="translate(486.58,47)"
     style="color-interpolation:linearRGB;fill:#ff0000;stroke:#ff0000;stroke-width:2;stroke-linecap:butt;stroke-linejoin:round;color-rendering:optimizeQuality;image-rendering:optimizeQuality;text-rendering:geometricPrecision"
     id="g94">
    <path
       style="stroke:none"
       d="m 0,-5.3667 c 2.9639,0 5.3667,2.4028 5.3667,5.3667 V 0 C 5.3667,2.9639 2.9639,5.3667 0,5.3667 -2.9639,5.3667 -5.3667,2.9639 -5.3667,0 c 0,-2.9639 2.4028,-5.3667 5.3667,-5.3667 z m 0,-1 c -3.5162,0 -6.3667,2.8505 -6.3667,6.3667 0,3.5162 2.8505,6.3667 6.3667,6.3667 C 3.5162,6.3667 6.3667,3.5162 6.3667,0 V 0 C 6.3667,-3.5162 3.5162,-6.3667 0,-6.3667 Z"
       id="path93" />
  </g>
  <g
     transform="translate(538.66,47)"
     style="color-interpolation:linearRGB;fill:#ff0000;stroke:#ff0000;color-rendering:optimizeQuality;image-rendering:optimizeQuality;text-rendering:geometricPrecision"
     id="g95">
    <circle
       r="5.8667002"
       style="stroke:none"
       cx="0"
       cy="0"
       id="circle94" />
  </g>
  <g
     transform="translate(538.66,47)"
     style="color-interpolation:linearRGB;fill:#ff0000;stroke:#ff0000;stroke-width:2;stroke-linecap:butt;stroke-linejoin:round;color-rendering:optimizeQuality;image-rendering:optimizeQuality;text-rendering:geometricPrecision"
     id="g96">
    <path
       style="stroke:none"
       d="m 0,-5.3667 c 2.9639,0 5.3667,2.4028 5.3667,5.3667 V 0 C 5.3667,2.9639 2.9639,5.3667 0,5.3667 -2.9639,5.3667 -5.3667,2.9639 -5.3667,0 c 0,-2.9639 2.4028,-5.3667 5.3667,-5.3667 z m 0,-1 c -3.5162,0 -6.3667,2.8505 -6.3667,6.3667 0,3.5162 2.8505,6.3667 6.3667,6.3667 C 3.5162,6.3667 6.3667,3.5162 6.3667,0 V 0 C 6.3667,-3.5162 3.5162,-6.3667 0,-6.3667 Z"
       id="path95" />
  </g>
  <g
     transform="translate(629.8,111.25)"
     style="color-interpolation:linearRGB;fill:#ff0000;stroke:#ff0000;color-rendering:optimizeQuality;image-rendering:optimizeQuality;text-rendering:geometricPrecision"
     id="g97">
    <circle
       r="5.8667002"
       style="stroke:none"
       cx="0"
       cy="0"
       id="circle96" />
  </g>
  <path
     style="color-interpolation:linearRGB;fill:#ff0000;stroke:none;stroke-width:2;stroke-linecap:butt;stroke-linejoin:round;color-rendering:optimizeQuality;image-rendering:optimizeQuality;text-rendering:geometricPrecision"
     d="m 629.8,105.8833 c 2.9639,0 5.3667,2.4028 5.3667,5.3667 v 0 c 0,2.9639 -2.4028,5.3667 -5.3667,5.3667 -2.9639,0 -5.3667,-2.4028 -5.3667,-5.3667 0,-2.9639 2.4028,-5.3667 5.3667,-5.3667 z m 0,-1 c -3.5162,0 -6.3667,2.8505 -6.3667,6.3667 0,3.5162 2.8505,6.3667 6.3667,6.3667 3.5162,0 6.3667,-2.8505 6.3667,-6.3667 v 0 c 0,-3.5162 -2.8505,-6.3667 -6.3667,-6.3667 z"
     id="path97" />
  <path
     d="m 174.1,552.0436 13.02,-2.4075 13.02,-3.0362 13.02,-3.8181 13.02,-4.7838 13.02,-5.9666 13.02,-7.3996 13.02,-9.1125 13.02,-11.1251 13.02,-13.4397 13.02,-16.0301 13.02,-18.8317 13.02,-21.7325 13.02,-24.5705 13.02,-27.1427 13.02,-29.2271 13.02,-30.6177 13.02,-31.1638 13.02,-30.8037 13.02,-29.5782 13.02,-27.6218 13.02,-25.1324 13.02,-22.3318 13.02,-19.4291 13.02,-16.5961 13.02,-13.9551 13.02,-11.5802 13.02,-9.5045 13.02,-7.7306 13.02,-6.2418 13.02,-5.0099 13.02,-4.002 13.02,-3.1846 13.02,-2.5266 13.02,-1.9997 13.02,-1.5797 13.02,-1.2459 13.02,-0.9816 13.02,-0.7726 13.02,-0.6077 13.02,-0.4776"
     style="color-interpolation:linearRGB;fill:none;fill-rule:evenodd;stroke:#ff0000;stroke-width:2;stroke-linecap:butt;stroke-linejoin:round;color-rendering:optimizeQuality;image-rendering:optimizeQuality;text-rendering:geometricPrecision"
     id="path98" />
  <line
     x1="434.5"
     x2="434.5"
     y1="561"
     style="color-interpolation:linearRGB;fill:none;stroke:#a2142f;stroke-width:1;stroke-linecap:butt;stroke-linejoin:round;color-rendering:optimizeQuality;image-rendering:optimizeQuality;text-rendering:geometricPrecision"
     y2="47"
     id="line98" />
  <line
     x1="109"
     x2="760"
     y1="304"
     style="color-interpolation:linearRGB;fill:none;stroke:#0072bd;stroke-width:1;stroke-linecap:butt;stroke-linejoin:round;color-rendering:optimizeQuality;image-rendering:optimizeQuality;text-rendering:geometricPrecision"
     y2="304"
     id="line99" />
  <g
     transform="translate(649,538)"
     style="font-size:18px;font-family:mwb_cmr10;color-interpolation:linearRGB;color-rendering:optimizeQuality;image-rendering:optimizeQuality;text-rendering:geometricPrecision"
     id="g108">
    <path
       style="stroke:none"
       d="m 0.9688,0 q -0.1407,0 -0.1407,-0.1406 0,-0.0156 0.0078,-0.0235 0.0079,-0.0078 0.0079,-0.039 l 6.2031,-12.4844 q 0.0781,-0.2031 0.3125,-0.2031 h 0.25 q 0.25,0 0.3281,0.2031 l 6.2031,12.4844 q 0,0.0156 0.0078,0.0312 0.0078,0.0157 0.0078,0.0313 Q 14.1562,0 14,0 Z m 1.1874,-1.4375 h 9.4844 L 6.9062,-11 Z"
       id="path107" />
  </g>
  <g
     transform="translate(664,538)"
     style="font-size:18px;color-interpolation:linearRGB;color-rendering:optimizeQuality;image-rendering:optimizeQuality;text-rendering:geometricPrecision"
     id="g109">
    <path
       style="stroke:none"
       d="m 5.8135,-4.1406 1.6094,-0.1406 q 0.1093,0.9687 0.5234,1.5859 0.4141,0.6172 1.2969,1 0.8828,0.3828 1.9765,0.3828 0.9844,0 1.7266,-0.2891 0.7422,-0.289 1.1094,-0.7968 0.3672,-0.5078 0.3672,-1.1016 0,-0.6094 -0.3516,-1.0625 -0.3516,-0.4531 -1.1641,-0.75 -0.5156,-0.2031 -2.289,-0.6328 Q 8.8447,-6.375 8.126,-6.75 7.2041,-7.2344 6.751,-7.9531 6.2979,-8.6719 6.2979,-9.5469 q 0,-0.9843 0.5546,-1.8281 0.5547,-0.8438 1.6172,-1.2891 1.0625,-0.4453 2.375,-0.4453 1.4219,0 2.5157,0.461 1.0937,0.4609 1.6875,1.3593 0.5937,0.8985 0.625,2.0391 l -1.625,0.125 q -0.1407,-1.2344 -0.8985,-1.8594 -0.7578,-0.625 -2.2422,-0.625 -1.5468,0 -2.2578,0.5703 -0.7109,0.5703 -0.7109,1.3672 0,0.7031 0.5156,1.1407 0.4844,0.4531 2.5625,0.9218 2.0781,0.4688 2.8594,0.8282 1.125,0.5156 1.6562,1.3124 0.5313,0.7969 0.5313,1.8282 0,1.0312 -0.586,1.9375 -0.5859,0.9062 -1.6875,1.414 -1.1015,0.5079 -2.4921,0.5079 -1.75,0 -2.9297,-0.5079 Q 7.1885,-0.7969 6.5166,-1.8203 5.8447,-2.8438 5.8135,-4.1406 Z m 25.7099,-3.4375 h -8.5156 v -1.4688 h 8.5156 z m 0,3.9062 h -8.5156 v -1.4687 h 8.5156 z M 43.333,0 v -3.0781 h -5.5781 v -1.4531 l 5.875,-8.3594 h 1.2969 v 8.3594 h 1.7343 v 1.4531 H 44.9268 V 0 Z m 0,-4.5312 v -5.8126 l -4.0312,5.8126 z m 4.9482,-1.8282 q 0,-2.2812 0.4688,-3.6718 0.4688,-1.3907 1.3984,-2.1485 0.9297,-0.7578 2.336,-0.7578 1.0312,0 1.8125,0.4141 0.7812,0.414 1.289,1.2031 0.5079,0.7891 0.8047,1.9219 0.2969,1.1328 0.2969,3.039 0,2.2656 -0.4687,3.6641 -0.4688,1.3984 -1.3985,2.1562 -0.9297,0.7579 -2.3359,0.7579 -1.875,0 -2.9375,-1.3282 -1.2657,-1.6094 -1.2657,-5.25 z m 1.625,0 q 0,3.1719 0.7422,4.2266 0.7422,1.0547 1.836,1.0547 1.0781,0 1.8281,-1.0547 0.75,-1.0547 0.75,-4.2266 0,-3.1718 -0.75,-4.2187 -0.75,-1.0469 -1.8437,-1.0469 -1.0938,0 -1.75,0.9219 -0.8126,1.1719 -0.8126,4.3437 z m 8.6827,-3.4375 q 0,-1.375 0.6953,-2.3437 0.6953,-0.9688 2.0078,-0.9688 1.2187,0 2.0156,0.8672 0.7969,0.8672 0.7969,2.5547 0,1.625 -0.8047,2.5078 -0.8047,0.8828 -1.9922,0.8828 -1.1562,0 -1.9375,-0.8672 -0.7812,-0.8671 -0.7812,-2.6328 z m 2.75,-2.2187 q -0.5938,0 -0.9844,0.5078 -0.3906,0.5078 -0.3906,1.8672 0,1.25 0.3984,1.75 0.3984,0.5 0.9766,0.5 0.5937,0 0.9843,-0.5078 0.3907,-0.5078 0.3907,-1.8516 0,-1.25 -0.3907,-1.7578 -0.3906,-0.5078 -0.9843,-0.5078 z m 0.0156,12.4844 7.0469,-13.5782 h 1.2812 L 62.6514,0.4688 Z m 5.5625,-3.5 q 0,-1.375 0.6953,-2.3438 0.6953,-0.9688 2.0234,-0.9688 1.2188,0 2.0079,0.8672 0.789,0.8672 0.789,2.5547 0,1.625 -0.7969,2.5078 -0.7968,0.8829 -1.9843,0.8829 -1.1719,0 -1.9532,-0.875 -0.7812,-0.875 -0.7812,-2.625 z M 69.6826,-5.25 q -0.5937,0 -0.9844,0.5078 -0.3906,0.5078 -0.3906,1.8828 0,1.2188 0.3906,1.7344 0.3907,0.5156 0.9688,0.5156 0.6094,0 1,-0.5156 0.3906,-0.5156 0.3906,-1.8594 0,-1.25 -0.3906,-1.7578 Q 70.2764,-5.25 69.6826,-5.25 Z"
       id="path108" />
  </g>
  <g
     style="color-interpolation:linearRGB;fill:#ff0000;stroke:#ff0000;stroke-width:2;stroke-linecap:butt;stroke-linejoin:round;color-rendering:optimizeQuality;image-rendering:optimizeQuality;text-rendering:geometricPrecision"
     id="g110">
    <line
       y2="530.40521"
       style="fill:none"
       x1="584.98187"
       x2="644.8006"
       y1="530.40521"
       id="line109" />
  </g>
  <g
     style="color-interpolation:linearRGB;fill:#262626;stroke:#262626;stroke-linecap:butt;color-rendering:optimizeQuality;image-rendering:optimizeQuality;text-rendering:geometricPrecision"
     id="g111"
     transform="matrix(1.0024487,0,0,0.35430696,-1.6198121,352.10473)">
    <path
       d="m 579,545 v -77 h 165 v 77 z"
       style="fill:none;fill-rule:evenodd"
       id="path110" />
  </g>
</svg>
